<?xml version="1.0" encoding="UTF-8"?>
<svg id="_圖層_1" data-name="圖層_1" xmlns="http://www.w3.org/2000/svg" version="1.1" xmlns:xlink="http://www.w3.org/1999/xlink" viewBox="0 0 361.51 358.45">
  <!-- Generator: Adobe Illustrator 29.8.3, SVG Export Plug-In . SVG Version: 2.1.1 Build 3)  -->
  <defs>
    <style>
      .st0 {
        fill: #231815;
      }

      .st1 {
        stroke: #244964;
        stroke-miterlimit: 10;
      }

      .st1, .st2 {
        fill: #244964;
      }

      .st3 {
        fill: #00483e;
      }

      .st4 {
        fill: #004a41;
      }

      .st5 {
        fill: #fff;
      }

      .st6 {
        fill: #951e31;
      }

      .st7 {
        fill: none;
      }

      .st8 {
        fill: #284b66;
      }

      .st9 {
        fill: #a41e34;
      }

      .st10 {
        fill: #f6f4ca;
      }

      .st11 {
        fill: #1f4760;
      }

      .st12 {
        clip-path: url(#clippath);
      }

      .st13 {
        fill: #dbe3ea;
      }

      .st14 {
        fill: #e8e8e8;
      }

      .st15 {
        fill: #afafaf;
      }
    </style>
    <clipPath id="clippath">
      <circle class="st7" cx="183.61" cy="155.94" r="177.9" transform="translate(-56.49 175.51) rotate(-45)"/>
    </clipPath>
  </defs>
  <g class="st12">
    <g>
      <g>
        <path class="st5" d="M187.82,28.35c-14.16-2-43.24,17.93-47.42,39.33-6.75,21.21-3.39,42.62-8.24,47.74,1.16.96,3.93,2.91,5.21,3.76-2.76,3.6-12.17,21.62,12.64,29.83,0,0,13.91,27.24,20.64,31.25-10.78,5.78-16.07,21.01-30.09,29.12-8.67,5.31-23.23,16.63-31.64,19.41-8.41,2.78-15.79,10.68-15.79,10.68,0,0,2.45-12.44,2.39-18.96-.18-19.89-15.2-8.03-13.63-7.38,5.95,2.43-1.98-14.68-8.77-13.64-6.79,1.04-6.09-5.82-6.09-5.82-.45,1-6.79-5.79-7.25-1.2-.45,4.59-5.75,5.43-9.51,10.55-3.75,5.11-11.38,13.69-11.38,13.69,0,0,5.37,25.88,13.59,32.74l-1.16,3.17-3.49,3.17,1.29,18.51-4.14,6.53c.05,12.52-5.95,95.04,23.43,104.82,18.51,12.03,34.98-5.91,44.95-11.52-.52,18.76-5.37,60.65,11.08,78.81l-1.1,13.2c5.91,1.76,19.51,280.03,21.68,283.41,0,0-2.2,8.92-2.2,8.92,0,0-.13,3.36,1.68,5.82,1.81,2.46,2.27,4.52,2.27,4.52,0,0-9.52,14.25-17.48,19.94-7.96,5.69-19.15,10.55-22.06,15.14-2.91,4.59-6.41,12.42,9.51,15.33,30.4,4.37,31.25-6.86,52.47-16.56,13.54-4.3,30.04-1.19,30.74-17.15h4.2l1.62,7.57c3.36,5.01,31.32,9.45,36.49,14.04,5.95,3.62,17.73,11.71,29.25,12.1,11.52.39,25.04-.91,25.95-5.37,6.41-17-25.61-16.54-41.67-46.98,7.21-2.46,3.15-9.15,2.59-15.27,0-4.79,18.7-282.89,18.7-282.89,6.55-1.98-1.09-11.03,4.4-23.1,3.17-8.28,8.54-14.43,8.93-27.95,38.13-8.48,67.52-19.84,51.76-69.43-10.64-32.72-17.67-67.1-28.91-97.25-5.05-24.27-21.11-20.72-39.48-33.04-11.68-8.7-32.18-26.23-37.59-35.81l-5.24-.78c10.71-3.2,17.43-31.26,23.58-33.13,20.07-4.42,17.7-19.45,9.03-31.06l6.73-1.18c-1.16-15.53-6.63-61.85-23.1-74.91-8.48-5.24-32.42-14.36-32.42-14.36,0,0-15.28-9.41-26.95,1.64"/>
        <path class="st13" d="M124.89,468.03l18.79,281.46s-6.22,11.97,1.58,17.29c7.8,5.32,47.87,8.3,52.18,8.68,4.31.38,22.3.38,33.51-3.24,11.2-3.62,23.99-3.79,22.41-13.66-1.58-9.88-2.37-6.75-2.21-13.66.16-6.92,19.57-277.72,19.57-277.72,0,0-31.36,12.46-63.38,13.29-32.01.84-70.12-6.37-82.45-12.43"/>
        <path class="st10" d="M208.46,255.94l-4.3-23.12c-.05-.25-.04-.51,0-.77l2.92-13.71c.65-2.06-3.37-3.45-4.5-4.44-1.3-1.35-1.66-3.8-4.28-2.85-1.78,3.48-5.37,5.77-8.77,7.47l1.95,13.01c.03.23.03.47-.02.7l-5.69,26.73c-.31,1.48,1.09,2.78,2.7,2.51l18.12-3.08c1.25-.21,2.08-1.31,1.87-2.46"/>
        <path class="st14" d="M337.76,372.27c-3.6-33.48-18.33-85.55-29.45-116.43-8.32-24.44-9.03-25.47-32.49-36.01-13.49-7.72-27.59-24.22-36.63-33.87-.68-.81-3.19,4.91-4.17,5.31l.82,6.78c-1.45,7.8-2.03,15.61-3.52,25.26-.65,7.33-8.11,28.43-9.48,32.94.33.14,10.17-1.02,10.46-.82,18.14-2.51,31.08-6.11,50.88-6.88,2.83-.22,6.38-2.01,6.31.31-.01.32.79,4.57,1.28,6.85.47,29.49,10.38,59.22,11.45,88.99-.83,8.06-18.55,9.18-25.05,12.86-7.34,10.34-20.57,11.58-32.29,9.4-.65.95-1.3,1.9-1.94,2.85,5.56,11.14,4.87,26.01,3.07,37.73-1.97,16.94-23.04,15.91-35.01,15.03-4.47-5.5-14.29-6.32-15.11-14.17-1.35-4.01.02-15.02-5.62-18.83-.18-1.44-.37-2.88-.55-4.32.81-2.23,3.37-2.39,4.6-4.17,5.18-2.72-.27-8.18,0-12.39-6.51-32.92-9.5-100.18-21.27-131.09-4.67-15.28-6.62-31.25-6.01-47.21.08-2.41-2.71-4.29-4.93-3.67-11.38,15.93-27.37,27.59-44.93,36.01-13.24,3.89-22.35,13.47-29.33,24.88.35,1.56.08,3.28-6.34,4.98-8.78,2.19-8.06,5.73-17.42,3.96-10.44-.81-13.43-7.97-17.28-1.33-3.04,3.86,3.75,18.3-.81,21.61-2.79,3.19-2.5,2.74-2.79,9.97,1.06,35.36-6.26,91.56,37.59,102.57,7.22-1.07,16.6-4.47,23.05-9.31.81-4.32,7.92-4.04,7.91.81.02,14.71-1.18,29.55,1.07,44.16,1.86,13.79,12.39,25.31,9.48,39.9.56,1.14,1.14,2.27,1.72,3.39,12.2,4.69,47.24,16.78,72.36,12.85,2.59-.36,54.8-.66,74.84-13.78.62-1.2,1.81-2.79.87-4.14-5.53-12.6,9.68-25.01,10.53-43.46,18-11.71,58.15-12.38,54.1-47.54"/>
        <path class="st2" d="M146.84,303.26c8.52-1.52,17.03-3.15,25.53-4.8,2.4-.46,3.62-2.04,3.62-4.49,0-3.06-.04-6.13-.07-9.19-.02-1.68-.27-3.4-2.34-3.49-2.31-.1-2.53,1.67-2.64,3.5-.17,2.92,1.28,6.54-.67,8.57-1.98,2.06-5.8,1.37-8.71,2.24-10.84,3.22-21.56,2.71-32.42-.2-8.36-2.25-6.44.16-7.48-8.43-.48-4-.29-4.12,3.73-4.13,13.2-.02,26.4,0,39.61-.01,1.05,0,2.12.04,3.16-.1,1.34-.18,2.51-.8,2.5-2.36-.01-1.52-1.05-2.24-2.46-2.39-.84-.09-1.69-.09-2.53-.09-7.08,0-14.15,0-21.23,0v-.05c-7.29,0-14.57,0-21.86,0-4.49,0-6.22,1.69-6.03,6.13.15,3.59.54,7.16.8,10.74.18,2.49,1.52,3.72,3.95,4.17,7.17,1.32,14.31,2.78,21.47,4.13,1.33.25,2.77.5,4.08.27"/>
        <path class="st2" d="M139.8,214.41s.04-.06.06-.08c-.04.02-.08.05-.12.07,0,0,0,0,0,0,.02,0,.04,0,.06,0"/>
        <path class="st2" d="M271.31,454.28c-1.86.34-3.71.8-5.51,1.41-12.42,4.22-25.04,7.54-38.11,9.09-5.55.66-11.06,1.6-16.59,2.45-1.45.22-2.78.8-2.67,2.55.11,1.93,1.57,2.28,3.35,2.27.26-.02.68-.04,1.1-.09,18.86-2.42,37.62-5.33,55.57-12,1.28-.48,2.65-.73,3.93-1.22,1.2-.46,1.91-1.41,1.58-2.74-.32-1.33-1.38-1.95-2.65-1.71"/>
        <path class="st2" d="M191.56,467.17c-1.67-.28-3.32-.63-5-.81-16.86-1.76-33.38-5.03-49.39-10.69-1.59-.56-3.23-1-4.88-1.35-1.49-.31-2.82.06-3.17,1.78-.3,1.52.64,2.38,1.96,2.82,2.4.81,4.83,1.53,7.23,2.34,17.1,5.77,34.78,8.68,52.64,10.71,1.63.1,3.4.12,3.67-1.99.27-2.13-1.42-2.55-3.07-2.82"/>
        <path class="st2" d="M130.64,420.53c6.02-13.6,12.04-27.19,18.05-40.79.38-.86.69-1.74.93-2.35-.15-1.5-.69-2.42-1.88-2.6-1.81-.27-2.66,1.02-3.28,2.42-6.37,14.36-12.73,28.73-19.08,43.1-.64,1.45-.95,2.99.79,3.85,1.91.94,2.92-.36,3.68-1.9.28-.57.52-1.15.78-1.73"/>
        <path class="st2" d="M204,424.52c-.21-1.29-.97-2.12-2.33-2.12-1.23,0-1.94.77-2.18,1.91-.17.82-.24,1.67-.24,2.51-.02,14.34-.04,28.67-.02,43.01,0,1.7,0,3.74,2.32,3.8,2.55.06,2.51-2.07,2.52-3.89.02-7.17,0-14.34,0-21.5h.03c0-7.17,0-14.34,0-21.51,0-.74.02-1.48-.1-2.21"/>
        <path class="st2" d="M88.14,268.02c-2.92,1.6-6.1,2.37-9.33,2.92-7.45,1.27-14.94.89-22.42.37-1.68-.12-3.44-.3-3.84,1.71-.44,2.21,1.32,2.94,3.11,3.12,3.36.32,6.73.48,10.1.7,6.7.04,13.31-.45,19.73-2.45,1.7-.53,3.36-1.26,4.94-2.08,1.4-.73,2.45-1.94,1.55-3.61-.9-1.65-2.41-1.47-3.85-.68"/>
        <path class="st2" d="M142.8,291.82c-.1,1.84.91,2.94,2.83,3.19,1.91-.19,3.13-1.19,3.16-3.19.03-1.88-1.09-2.99-2.94-2.98-1.84.01-2.95,1.18-3.05,2.98"/>
        <path class="st2" d="M218.6,266.24c-1.63,0-2.95,1.32-2.95,2.95s1.32,2.95,2.95,2.95,2.95-1.32,2.95-2.95-1.32-2.95-2.95-2.95"/>
        <path class="st2" d="M255.83,267.23c1.63,0,2.95-1.32,2.95-2.95s-1.32-2.95-2.95-2.95-2.95,1.32-2.95,2.95,1.32,2.95,2.95,2.95"/>
        <path class="st2" d="M212.89,156.05c-3.76-.16-7.54-.04-11.3-.04v-.03c-3.66,0-7.33-.1-10.98.03-3.51.13-4.43,1.7-2.93,4.85,2.34,4.94,6.19,8.48,10.93,11.07,1.81.99,3.8,1.07,5.61.13,5.01-2.59,8.99-6.29,11.37-11.48,1.31-2.86.42-4.4-2.7-4.53M201.96,167.5c-4.07.34-6.26-3.84-9.7-7.08h18.21c-2.51,3.3-4.92,6.79-8.51,7.08"/>
        <path class="st2" d="M199.02,145.71c.61.12,1.23.14,1.84.16,0,0,.5.02.66.02.76,0,1.35-.09,1.86-.29.92-.36,1.37-.89,1.22-1.46-.11-.32-.43-.55-.87-.84-.34-.23-.7-.4-1.01-.55-.23-.1-.46-.19-.69-.27-.3-.1-.57-.2-.83-.35-.45-.25-.82-.6-1.09-1.03-.21-.33-.32-.64-.33-.93-.02-.51.24-1.04.48-1.52.26-.51.49-1.05.72-1.65.67-1.36.85-2.62.49-3.44-.28-.63-.85-1.02-1.53-1.05-.72,0-1.02.51-1.26.92l-.98,1.62c-.28.46-.55.91-.81,1.38-.21.38-.4.77-.6,1.18-.16.32-.32.64-.53,1.03-.35.66-.72,1.34-.85,2.14-.2,1.16.15,2.32.98,3.27.9,1.04,2.21,1.46,3.15,1.64"/>
        <path class="st2" d="M180.63,121.21c-.89-1.27-2.54-2.03-4.41-2.03-2.02,0-3.79.87-4.61,2.28-.57.97-.95,2.64.47,5.06l.06.11.11.07c1.25.85,2.67,1.32,4.01,1.32,2.65,0,4.53-1.77,5.03-4.74l.03-.15-.65-1.85-.05-.06Z"/>
        <path class="st2" d="M226.93,119.18c-1.87,0-3.52.76-4.41,2.03l-.05.06-.65,1.85.03.15c.5,2.97,2.39,4.74,5.03,4.74,1.34,0,2.76-.47,4.01-1.32l.11-.07.06-.11c1.42-2.42,1.04-4.08.47-5.06-.82-1.4-2.59-2.28-4.61-2.28"/>
        <path class="st2" d="M272.09,110.68c-.64-1.1-1.32-2.09-1.43-3.49-1.18-14.72-2.74-29.33-7.28-43.55-5.65-17.68-17.59-28.66-34.52-35.02-5.4-2.03-10.99-3.33-16.41-5.48-8.34-3.32-17.55-4.06-25.53,2.38-.37.3-.99.4-1.49.43-3.91.23-7.58,1.52-11.19,2.83-15.38,5.55-26.72,15.5-32.99,30.85-5.43,13.29-6.13,27.53-8.38,41.45-.63,3.94-.17,7.89-2.51,11.65-2.13,3.42.29,6.34,4.42,5.99.37-.03.74-.08,1.11-.14-1.87,1.5-3.28,3.51-3.95,5.92-2.37,8.54-.66,15.61,5.08,21,2.68,2.52,6.25,4.32,10.56,5.38,1.37,3.95,2.93,7.84,4.78,11.66.86,1.77,1.81,3.2,3.71,2.98,3.26,7.71,8.69,13.97,16.18,18.61,7.24,4.48,15.32,7.74,24.69,9.93.26.06.52.13.79.19,1.17.29,2.39.59,3.6.59.49,0,.95-.05,1.4-.15,14.48-3.22,29.31-8.03,39.66-21.22,1.95-2.48,3.37-5.21,4.59-8,1.82.32,3.01-.62,3.81-2.33,1.89-4.07,3.57-8.19,5.04-12.38,11.26-3.45,16.36-9.83,16-20.08.03-4.97-1.26-8.92-3.74-11.41-.28-.28-.6-.51-.91-.75,2.08.39,4.23.73,5.72-1.28,1.7-2.3.43-4.49-.78-6.56M143.89,143.98c-.38-.22-.75-.44-1.13-.64-4.15-2.12-8.83-9.38-5.67-18.24.55-1.56,1.85-2.85,3.74-3.74.03-.01.05-.02.07-.03,0,.06.02.12.03.18,1.06,7.95,2.56,15.77,4.76,23.4-.62-.25-1.21-.59-1.8-.93M151.02,143.72c-2.03-4.57-3.04-9.34-3.77-14.19-.46-3.07-.99-6.12-1.48-9.18-.67-4.12-.52-4.33,3.59-4.81.73-.08,1.47-.01,2.51-.01.72,9.45-1.07,18.79-.84,28.19M238.73,170.09c-5.52,7.8-13.71,12-20.99,15.09-.56.24-1.13.48-1.7.73-4.32,1.86-8.78,3.79-13.43,3.79-1.13,0-2.25-.12-3.31-.35-12.15-2.68-25.83-7.09-35.18-19.47-3.02-4-4.71-8.62-6.34-13.09l-.36-.99c-.02-.06-.04-.12-.07-.18-.35-2.3-.58-4.63-.78-6.96-.92-10.73.56-21.42.5-32.14-.01-1.92,1.11-2.24,2.6-2.54,8.2-1.68,16.52-2.42,24.85-3.23,18.71-1.82,37.26-.32,55.73,2.58,5.97.94,5.95,1.13,6.14,7.05.35,11.37,1.48,22.78-.18,34.08-.31.78-.64,1.56-.94,2.33-1.77,4.51-3.6,9.17-6.53,13.31M257.38,121.5c-1.14,6.42-1.72,12.94-3.68,19.2-.33,1.07-.7,2.13-1.39,3.14.05-9.39-1.27-18.68-1.04-28.11.68-.2.89-.31,1.09-.31,5.74.18,6.02.48,5.02,6.08M258.97,143.94c-.39.15-.76.33-1.14.5,1.64-5.61,2.9-11.33,3.67-17.2.25-1.9.49-3.82.88-5.76,2.18,1.09,3.6,2.79,4.09,4.93,1.48,6.43-.23,14.66-7.5,17.52M136.12,113.23c1.96-2.77,1.02-5.66,1.4-8.34,1.43-10.18,2.67-20.39,4.32-30.53,3.58-21.95,19.47-38.43,41.17-43.03.61-.13,1.24-.39,2.12.29-.42,1.79-.9,3.72-1.34,5.66-1.64,7.22-2.72,14.53-3.69,21.86-.1.74-.19,1.5-.1,2.24.15,1.28.8,2.27,2.21,2.35,1.38.08,2.25-.75,2.5-2.03.41-2.1.73-4.23.99-6.35,1.05-8.42,2.68-16.7,5.16-24.84.73-2.41,2.12-3.52,4.48-3.89,4.17-.67,8.31-.68,12.48-.04,2.49.38,3.93,1.55,4.72,4.06,2.96,9.46,4.4,19.2,5.75,28.97.06.42.09.85.16,1.28.29,1.59.87,3.05,2.82,2.8,1.91-.25,2.33-1.81,2.1-3.4-.8-5.62-1.63-11.24-2.61-16.83-.7-3.99-1.66-7.93-2.54-12.04.55-.1.98-.3,1.34-.22,18.81,4.58,32.78,14.53,39.01,33.84,4.58,14.21,6.05,28.83,7.3,43.55.06.73.2,1.48.44,2.17.24.69.66,1.31,1.54,2.99-44.42-11.42-87.99-11.43-131.73-.53"/>
        <path class="st2" d="M255.52,102.81c-2.31-1.77-4.93-2.99-7.59-4.16-14.74-6.5-30.42-7.59-46.63-8.08-11.47.43-23.35.97-34.9,4.21-6.41,1.8-12.65,4.05-18.24,7.77-1.44.96-2.5,2.31-1.31,4.04,1.1,1.59,2.6,1.08,3.97.19,5.73-3.73,12.06-5.99,18.64-7.6,16.32-3.99,32.86-4.38,49.46-2.62,11.89,1.26,23.48,3.77,33.79,10.34,1.28.81,2.68,1.18,3.73-.22,1.13-1.52.4-2.86-.93-3.87"/>
        <g>
          <g>
            <polygon class="st9" points="137.89 313.49 137.89 333.28 141.61 333.28 141.61 317.22 137.89 313.49"/>
            <polygon class="st4" points="156.26 333.98 156.26 314.2 152.53 314.2 152.53 330.25 156.26 333.98"/>
          </g>
          <g>
            <path class="st0" d="M149.12,338.75c0,.06,0,.12-.01.18,0,.06-.02.12-.03.17-.02.08-.06.15-.1.22-.05.06-.1.12-.17.17-.07.05-.15.08-.24.11-.09.03-.2.04-.33.04-.22,0-.4-.04-.54-.13-.13-.08-.23-.2-.29-.35-.02-.06-.04-.12-.05-.2-.01-.07-.02-.15-.02-.22v-2.07h-.54v2.06c0,.09,0,.18.02.28.01.1.03.19.06.27.04.12.09.22.16.32.07.1.16.19.27.26.11.07.24.13.39.17.15.04.32.06.52.06s.39-.02.54-.07c.16-.04.29-.1.4-.18.11-.08.21-.17.27-.28.07-.11.12-.22.16-.35.02-.07.03-.15.04-.24,0-.08.01-.17.01-.24v-2.06h-.54v2.07Z"/>
            <path class="st0" d="M152.63,337.36c-.1-.14-.22-.26-.37-.36-.15-.1-.32-.18-.52-.23-.11-.03-.24-.05-.37-.07-.13-.01-.27-.02-.42-.02h-.81v3.41h.8c.15,0,.29,0,.42-.02.13-.01.25-.04.37-.07.2-.06.37-.14.52-.24.15-.1.27-.22.37-.36.1-.14.17-.3.22-.47.05-.17.07-.36.07-.56s-.02-.38-.07-.55c-.05-.17-.12-.33-.22-.46ZM150.65,337.15h.25c.15,0,.29,0,.41.02.12.01.23.03.32.06.25.08.44.21.57.4.13.19.2.44.2.74s-.07.56-.2.76c-.13.19-.33.33-.57.41-.1.03-.21.05-.32.06-.12.01-.26.02-.41.02h-.25v-2.47Z"/>
            <path class="st0" d="M156.37,337.68c-.07-.21-.18-.4-.31-.56-.14-.16-.3-.28-.5-.37-.2-.09-.42-.13-.66-.13s-.46.04-.65.13c-.19.09-.36.21-.5.37-.14.16-.24.34-.32.56-.07.21-.11.45-.11.71s.04.49.11.7c.07.21.18.4.31.56.14.16.3.28.5.37.2.09.42.13.67.13s.46-.04.65-.13c.19-.09.36-.21.5-.37.14-.16.24-.34.32-.56.07-.21.11-.45.11-.7s-.04-.49-.11-.71ZM155.97,338.39c0,.21-.03.4-.08.57-.05.16-.13.3-.23.4-.1.11-.21.19-.34.24-.26.11-.59.11-.85,0-.13-.05-.25-.13-.34-.24-.1-.11-.17-.24-.23-.4-.06-.16-.09-.35-.09-.56s.03-.4.08-.57c.05-.16.13-.3.23-.4.1-.11.21-.19.34-.24.13-.06.27-.08.42-.08s.29.03.42.08c.13.05.25.14.34.24.1.11.17.24.23.4.06.16.08.35.08.57Z"/>
            <path class="st0" d="M143.11,337.13c-.14-.16-.3-.28-.5-.37-.2-.09-.42-.13-.66-.13s-.46.04-.65.13c-.19.09-.36.21-.5.37-.14.16-.24.34-.32.56-.07.21-.11.45-.11.71s.04.49.11.7c.07.21.18.4.31.56.14.16.3.28.5.37.2.09.42.13.67.13s.46-.04.65-.13c.19-.09.36-.21.5-.37.14-.16.24-.34.32-.56.07-.21.11-.45.11-.7s-.04-.49-.11-.71c-.07-.21-.18-.4-.31-.56ZM143.03,338.39c0,.21-.03.4-.08.57-.06.16-.13.3-.23.4-.1.11-.21.19-.34.24-.26.11-.59.11-.85,0-.13-.05-.24-.13-.34-.24-.1-.11-.17-.24-.23-.4-.06-.16-.09-.35-.09-.56s.03-.4.08-.57c.06-.16.13-.3.23-.4.1-.11.21-.19.34-.24.13-.06.27-.08.42-.08s.29.03.42.08c.13.05.24.14.34.24.1.11.17.24.23.4.06.16.08.35.08.57Z"/>
            <polygon class="st0" points="146.6 336.73 145.93 336.73 144.43 338.16 144.43 336.76 143.97 336.76 143.97 340.05 144.43 340.05 144.43 338.28 146.13 340.05 146.75 340.05 145 338.24 146.6 336.73"/>
            <polygon class="st0" points="140.48 336.73 139.81 336.73 138.3 338.16 138.3 336.76 137.85 336.76 137.85 340.05 138.3 340.05 138.3 338.28 140.01 340.05 140.62 340.05 138.87 338.24 140.48 336.73"/>
          </g>
        </g>
        <g>
          <path class="st5" d="M208.43,254.59l5.23-.73c-1.34-6.36-3.26-12.57-5.51-18.7-.74-2.01-2.21-2.74-3.88-3l4.14,22.27c.01.06,0,.11.01.17Z"/>
          <path class="st5" d="M141.23,120.58s-.05.02-.07.03c-1.88.88-3.17,2.17-3.72,3.72-3.14,8.81,1.51,16.03,5.64,18.14.38.19.75.41,1.13.63.58.34,1.17.68,1.79.93-2.19-7.59-3.68-15.37-4.73-23.27,0-.06-.02-.12-.03-.18Z"/>
          <path class="st5" d="M207.06,217.04l-2.21,10.37c1.04.1,2.09.24,3.13.41.25-.84.59-1.44.57-2.03-.17-3.92,3.44-8.67-2.49-11.38-.92-.42-.56-1.72-1.06-3.04-.91.54-1.8.82-2.7.91.09.12.19.23.29.34,1.13.99,5.12,2.36,4.48,4.41Z"/>
          <path class="st5" d="M243.05,369.72c-3.85-2.08-8.02-3.23-12.25-4.19-9.3-2.11-18.6-1.2-27.92-.15-.56,2.02.55,2.89,1.66,3.72,2.14,1.61,4.64,1.77,7.18,1.62,2.16-.13,4.03.42,5.52,2.08.9,1,1.78,1.99,1.21,3.45-.52,1.34-1.65,2.01-3,2.21-1.28.19-2.6.34-3.89.28-4.99-.2-9.76,1.14-14.62,1.87-1.77.27-3.51.64-4.14,2.73-.65,2.13.2,3.5,1.98,4.65,1.72,1.1,2.16,2.9,2.18,4.87.04,3.26-.86,6.7,1.78,9.5.27.28.33.91.26,1.34-.86,5.68,3.33,7.43,7.26,9.37.5.25,1.13.35,1.49.72,4.86,4.94,11.06,4.44,17,3.72,5.77-.7,11.6-1.57,17.17-3.44.23-.08.45-.11.66-.13,3.45-12.22,2.67-24.66,1.76-37.09-.11-1.57-.73-3.12-1.2-4.66-.28-.91-.38-1.77-.1-2.47Z"/>
          <path class="st5" d="M199.94,370.79c-.27-.3-.5-.62-.71-.94l.83,5.85c1.48-.3,2.97-.61,4.45-.91-1.64-1.47-3.26-2.53-4.57-4Z"/>
          <path class="st5" d="M152.13,114.8c-1.03,0-1.77-.07-2.49.01-4.09.48-4.24.69-3.57,4.78.5,3.04,1.02,6.08,1.48,9.13.73,4.82,1.74,9.56,3.75,14.1-.23-9.35,1.55-18.63.84-28.03Z"/>
          <path class="st5" d="M252.06,114.69c-.2,0-.4.11-1.08.31-.24,9.38,1.08,18.62,1.03,27.95.68-1,1.05-2.06,1.38-3.12,1.95-6.22,2.52-12.71,3.66-19.09.99-5.57.71-5.87-4.99-6.05Z"/>
          <path class="st5" d="M261.15,126.45c-.77,5.84-2.01,11.53-3.65,17.1.38-.17.76-.35,1.14-.5,7.22-2.85,8.93-11.03,7.46-17.42-.49-2.13-1.9-3.82-4.07-4.91-.39,1.92-.63,3.83-.88,5.72Z"/>
          <path class="st5" d="M267.47,113.04c-.88-1.67-1.3-2.29-1.53-2.98-.24-.69-.37-1.43-.43-2.16-1.24-14.63-2.7-29.17-7.25-43.3-6.19-19.2-20.08-29.1-38.79-33.65-.35-.09-.78.12-1.33.22.87,4.09,1.83,8.01,2.53,11.97.98,5.56,1.8,11.15,2.59,16.74.23,1.58-.19,3.13-2.09,3.38-1.94.25-2.52-1.2-2.8-2.78-.08-.42-.11-.85-.16-1.27-1.33-9.72-2.77-19.4-5.71-28.81-.78-2.5-2.21-3.66-4.69-4.04-4.15-.64-8.27-.62-12.41.04-2.35.38-3.73,1.48-4.46,3.87-2.46,8.08-4.08,16.32-5.13,24.69-.26,2.11-.58,4.23-.98,6.32-.25,1.28-1.11,2.1-2.48,2.02-1.4-.08-2.04-1.07-2.2-2.34-.09-.73,0-1.49.1-2.22.97-7.29,2.04-14.56,3.67-21.74.44-1.93.91-3.85,1.34-5.63-.87-.68-1.5-.41-2.1-.29-21.58,4.57-37.39,20.96-40.94,42.78-1.64,10.09-2.88,20.24-4.3,30.36-.38,2.67.56,5.53-1.39,8.29,43.49-10.83,86.81-10.82,130.98.53ZM208.81,82.97c0,.19-.03.36-.08.52-.05.16-.13.29-.23.41-.1.11-.23.21-.37.27-.14.06-.3.1-.48.1s-.35-.03-.49-.1c-.14-.06-.27-.16-.37-.27-.1-.11-.18-.25-.23-.41-.05-.16-.08-.33-.08-.52s.03-.36.08-.52c.05-.16.13-.3.23-.41.1-.11.22-.21.37-.27.14-.06.31-.1.48-.1s.34.03.49.1c.14.06.27.16.37.27.1.11.18.25.23.41.05.16.08.33.08.52ZM205.91,65.16h2.74v14.56l-2.74-2.74v-11.82ZM204.15,81.72h.59c.11,0,.21,0,.31.01.1,0,.19.03.27.05.14.04.27.1.38.17.11.07.2.16.27.26.07.1.13.22.16.34.03.12.05.26.05.4s-.02.28-.05.41c-.04.13-.09.25-.16.35s-.17.19-.27.27c-.11.07-.24.13-.38.17-.08.02-.17.04-.27.05-.1,0-.2.01-.31.01h-.59v-2.51ZM201.69,81.72h.4v1.52c0,.05,0,.11.01.16,0,.05.02.1.04.15.04.11.11.19.21.25.1.06.23.09.4.09.09,0,.17-.01.24-.03.07-.02.13-.05.18-.08.05-.03.09-.08.13-.12.03-.05.06-.1.08-.16.01-.04.02-.08.03-.12,0-.05,0-.09,0-.14v-1.52h.4v1.51c0,.06,0,.12-.01.18,0,.06-.02.12-.03.18-.03.09-.06.18-.12.26-.05.08-.12.15-.2.21-.08.06-.18.1-.3.13-.11.03-.25.05-.4.05s-.27-.01-.38-.04c-.11-.03-.21-.07-.29-.12-.08-.05-.15-.12-.2-.19-.05-.07-.09-.15-.12-.24-.02-.06-.03-.13-.04-.2,0-.07-.01-.14-.01-.2v-1.51ZM199.61,81.77h.34v1.04l1.11-1.05h.49s-1.18,1.11-1.18,1.11l1.29,1.33h-.45l-1.25-1.3v1.3h-.34v-2.42ZM198.61,81.78c.14.06.27.16.37.27.1.11.18.25.23.41.05.16.08.33.08.52s-.03.36-.08.52c-.05.16-.13.29-.23.41-.1.11-.23.21-.37.27-.14.06-.3.1-.48.1s-.35-.03-.49-.1c-.14-.06-.27-.16-.37-.27-.1-.11-.18-.25-.23-.41-.05-.16-.08-.33-.08-.52s.03-.36.08-.52c.05-.16.13-.3.23-.41.1-.11.22-.21.37-.27.14-.06.31-.1.48-.1s.34.03.49.1ZM195.13,64.65l2.74,2.74v11.82h-2.74v-14.56ZM195.1,81.77h.34v1.04l1.11-1.05h.49s-1.18,1.11-1.18,1.11l1.29,1.33h-.45l-1.25-1.3v1.3h-.34v-2.42ZM169.64,98.56c-6.55,1.6-12.84,3.85-18.54,7.56-1.36.89-2.85,1.39-3.95-.19-1.19-1.72-.14-3.06,1.3-4.01,5.56-3.7,11.76-5.93,18.14-7.72,11.49-3.22,23.3-3.76,34.7-4.19,16.12.48,31.71,1.57,46.37,8.03,2.64,1.16,5.24,2.38,7.54,4.13,1.32,1.01,2.05,2.34.92,3.85-1.04,1.39-2.43,1.03-3.71.22-10.25-6.53-21.78-9.03-33.6-10.28-16.51-1.75-32.95-1.36-49.18,2.61Z"/>
          <path class="st5" d="M195.75,770.83c-.08,1.54-1.19,2.21-2.58,2.21-1.99,0-4.05.1-5.96-.33-8.62-1.94-17.57-1.59-26.15-3.76-4.01-1.01-8.15-1.7-11.91-3.48-4.23,6.35-9.6,13.59-17.31,19.23-4.28,3.13-8.72,6.17-13.02,9.09-1.98,1.35-3.95,2.69-5.9,4.05-.84.57-1.45,1.12-1.87,1.69-2.5,3.3-3.37,5.49-2.85,7.07.48,1.47,2.22,2.58,5.65,3.61,2.8.84,5.84,1.24,9.26,1.24s7.19-.44,10.71-.87l1.01-.12c9.74-1.17,18.02-4.41,25.32-9.9,6.61-4.98,14.42-7.23,23.2-9.46,2.52-.65,5.06-1.36,7.54-2.12,3.26-1.01,5.08-3.42,5.15-6.79.03-1.87.03-3.72.02-5.59-.01-1.89-.02-3.83.02-5.76-.11,0-.23-.02-.35-.03h0Z"/>
          <path class="st5" d="M207.01,776.64c-.01,1.87-.02,3.72.01,5.59.07,3.37,1.9,5.78,5.16,6.79,2.48.76,5.01,1.47,7.53,2.11,8.79,2.23,16.61,4.48,23.21,9.46,7.3,5.5,15.59,8.73,25.31,9.91l1.02.13c3.51.42,7.14.86,10.71.86s6.46-.41,9.26-1.24c3.43-1.03,5.18-2.14,5.65-3.61.52-1.58-.36-3.77-2.85-7.07-.43-.57-1.04-1.11-1.87-1.68-1.96-1.36-3.93-2.7-5.9-4.04-4.3-2.94-8.74-5.97-13.02-9.11-7.67-5.6-13.01-12.78-17.22-19.1-.31.12-.62.25-.94.35-7.63,2.39-15.31,4.54-23.37,4.77-5.59.16-10.93,2.16-16.53,2.32-1.05,0-2.1.06-3.14-.01-1.31-.09-2.32-.7-2.49-2-.19,0-.37.01-.56.02.04,1.87.03,3.74.02,5.57Z"/>
          <path class="st5" d="M340.11,385.66c1.24-3.04,2-6.03,2.17-9.31.67-13.5-1.83-26.5-6.11-39.21-4.28-12.72-7.14-25.8-10.15-38.84-1.38-5.98-3.03-11.84-5.2-17.57-4.18-11.04-7.26-22.48-11.95-33.33-.02-.01-.05-.02-.07-.03-.12-.33-.27-.67-.4-1.01-.24-.53-.48-1.07-.72-1.6-.09-.16-.15-.34-.25-.49-.05-.12-.09-.24-.14-.36-.09-.2-.17-.4-.27-.59-.16-.34-.31-.69-.43-1.05-.06-.13-.12-.27-.19-.4-1.94-5.33-5.47-9.22-10.36-11.83,4.89,4.71,7.16,11.04,11.66,24.27,11.06,30.7,25.7,82.48,29.28,115.77,3.07,26.61-19.31,33.35-38.07,40.18,8.21-1.98,16.22-4.61,23.65-8.88,6.89-3.96,14.22-7.57,17.56-15.72Z"/>
          <path class="st5" d="M253.05,754.16c.6,3.76-.9,6.11-3.6,7.77.65-.21,1.3-.41,1.95-.63,5.38-1.79,7.2-5.95,4.85-11.14-.99-2.19-1.28-4.38-1.11-6.74,4.36-60.86,8.7-121.73,13.03-182.59,2.15-30.22,4.28-60.44,6.41-90.67.03-.46.05-.93.1-1.39-1.59.7-3.2,1.34-4.83,1.91-2.9,40.44-18.87,263.63-19.01,269.88-.16,6.87.63,3.76,2.2,13.59Z"/>
          <path class="st5" d="M186.84,282.2c.21.4.3.84.19,1.33l11.45,81.05c.06-.19.11-.37.19-.56.79-1.9,2.82-2.7,4.97-3.07,7.48-1.3,15.05-1.28,22.52-.66,6,.5,11.82,2.18,17.31,4.79,0-.03-.01-.05-.01-.08-.19-2.56,2-2.74,3.82-2.79,4.6-.13,9.2-.11,13.8-.17,1.6-.02,3.2-.07,4.81-.16,2.22-.13,3.77-.95,5.12-3.05,2.74-4.28,6.93-6.96,11.77-8.44,6.11-1.87,12.24-3.66,18.36-5.45l-13.6-96.21-103.38,14.5,2.68,18.97ZM255.52,259.78c1.62,0,2.93,1.31,2.93,2.93s-1.31,2.93-2.93,2.93-2.93-1.31-2.93-2.93,1.31-2.93,2.93-2.93ZM218.5,264.66c1.62,0,2.93,1.31,2.93,2.93s-1.31,2.93-2.93,2.93-2.93-1.31-2.93-2.93,1.31-2.93,2.93-2.93Z"/>
          <path class="st5" d="M210.41,159.44h-18.11c3.42,3.23,5.6,7.38,9.65,7.04,3.57-.3,5.97-3.77,8.46-7.04Z"/>
          <path class="st5" d="M201.3,193.65c-1.2,0-2.41-.3-3.58-.59-.26-.06-.52-.13-.78-.19-9.29-2.18-17.3-5.4-24.48-9.84-.41.33-.95.52-1.59.6-1.41.18-3.06-.14-3.65,2.07,3.11.95,2.8,3.55,2.8,6.08.04,21.76,5.74,42.35,12.97,62.62.1.28.34.51.51.75,1.08-.19.91-1.09,1.01-1.73.91-5.96,2.85-11.63,4.85-17.27,1-2.83,1.64-5.5.54-8.52-.74-2.02-.78-4.29-1.22-6.99-2.91,2.53-5.19,5.06-7.14,7.87-1.06,1.53-2.16,3.26-4.23,1.78-1.86-1.32-.94-3.1.13-4.43,5.12-6.37,9.97-13.08,18.41-15.62,0-1.02-.94-1.21-1.61-1.62-6.51-4.05-13.05-8.06-19.54-12.14-1.05-.66-2.04-1.51-2.86-2.43-.84-.95-.92-2.14-.02-3.16.92-1.03,2.06-1.02,3.12-.27,7.82,5.51,16.12,10.27,24.19,15.39,1.76,1.12,2.83,1.28,4.68.09,8.03-5.17,16.36-9.89,24.17-15.41,1.05-.74,2.19-.88,3.14.14,1.03,1.1.91,2.39-.06,3.4-.93.97-2.03,1.83-3.18,2.54-6.41,4.02-12.85,7.97-19.28,11.97-.59.37-1.4.55-1.49,1.46,8.66,2.71,13.75,9.55,18.87,16.32.93,1.24,1.23,2.88-.36,3.89-1.76,1.12-2.92-.02-3.85-1.48-1.92-3.02-4.47-5.46-7.37-8.43-.78,6.15-3.05,11.41-.3,17.26,2.23,4.74,3.48,9.91,4.39,15.41l2.13-.3c6.1-16,9.56-32.66,12.08-49.53.62-4.17.31-8.4.24-12.6-.04-2.27.29-4.23,2.82-4.89-.3-2.06-1.69-2.08-3.09-2.16-.86-.05-1.64-.25-2.16-.71-8.48,5.54-18.23,8.39-27.82,10.52-.44.1-.9.15-1.39.15Z"/>
          <path class="st5" d="M202.6,188.55c4.62,0,9.06-1.92,13.35-3.77.57-.24,1.13-.49,1.69-.72,7.24-3.07,15.39-7.25,20.87-15,2.91-4.12,4.74-8.75,6.49-13.23.3-.76.63-1.54.94-2.32,1.64-11.23.52-22.57.17-33.88-.18-5.89-.16-6.08-6.1-7.01-18.37-2.88-36.81-4.37-55.42-2.56-8.27.81-16.55,1.54-24.71,3.21-1.48.3-2.59.62-2.58,2.53.05,10.66-1.42,21.29-.5,31.96.2,2.31.42,4.63.78,6.92.02.06.04.12.07.18l.36.99c1.62,4.45,3.3,9.05,6.3,13.02,9.3,12.31,22.9,16.69,34.98,19.36,1.06.23,2.17.35,3.29.35ZM222.35,120.51l.05-.06c.89-1.26,2.52-2.02,4.38-2.02,2.01,0,3.77.87,4.58,2.26.56.97.94,2.62-.47,5.03l-.06.11-.11.07c-1.24.85-2.66,1.31-3.99,1.31-2.63,0-4.5-1.76-5.01-4.71l-.02-.14.65-1.84ZM181.41,122.5c-.5,2.95-2.37,4.71-5.01,4.71-1.33,0-2.75-.47-3.99-1.31l-.11-.07-.06-.11c-1.41-2.4-1.03-4.06-.47-5.03.82-1.4,2.57-2.26,4.58-2.26,1.86,0,3.5.75,4.38,2.02l.05.06.65,1.84-.03.14ZM194.92,139.93c.13-.8.5-1.47.85-2.13.21-.39.37-.71.52-1.02.2-.4.39-.79.6-1.17.26-.46.53-.92.81-1.37l.98-1.61c.24-.41.54-.91,1.25-.91.67.03,1.24.42,1.52,1.04.36.82.19,2.07-.48,3.42-.22.59-.46,1.14-.71,1.64-.23.47-.5,1-.48,1.51,0,.29.12.61.33.93.27.42.64.78,1.09,1.02.25.14.53.24.82.34.23.08.47.16.69.27.31.14.67.32,1.01.54.43.28.76.51.86.83.15.57-.29,1.1-1.21,1.45-.51.2-1.1.29-1.85.29-.16,0-.66-.02-.66-.02-.61-.02-1.22-.05-1.83-.16-.93-.18-2.23-.6-3.13-1.63-.82-.95-1.17-2.1-.98-3.25ZM187.75,159.87c-1.49-3.14-.57-4.69,2.92-4.82,3.63-.14,7.28-.03,10.92-.03v.03c3.74,0,7.5-.13,11.24.04,3.1.13,3.98,1.66,2.68,4.5-2.37,5.16-6.32,8.84-11.3,11.42-1.81.93-3.78.85-5.58-.13-4.72-2.57-8.54-6.09-10.87-11.01Z"/>
          <path class="st13" d="M195.42,480.67c-20.34-.72-40.34-3.82-59.96-9.25-2.36-.65-4.63-1.53-6.86-2.52.04.43.07.87.1,1.31,2.03,28.33,4.07,56.66,6.08,84.99,2.2,30.95,4.36,61.91,6.55,92.87,2.13,30.01,4.28,60.02,6.58,92.26.2,2.47.81,7.07-1.51,11.65-1.69,3.34.79,7.7,4.66,9.02,7.26,2.49,14.64,4.55,22.39,4.85,6.73.26,13.23,2.35,19.98,2.54,1.4.04,2.41.9,2.33,2.44.12.01.24.02.35.03,0-.01,0-.02,0-.03,0-.2.01-.42.01-.62.05-1.66.3-3.21,1.71-3.39.1-.01.2-.02.3-.02.33,0,.72.07,1.16.19.02-.45.04-.9.04-1.35,0-88.7.01-177.41,0-266.12,0-5.83.63-4.7-4.81-6.05-1.12-.28-2.26-.5-3.34-.89-1.22-.44-1.89-1.38-1.62-2.71.27-1.35,1.35-2,2.58-1.76,5.15.99,10.29,2.07,15.41,3.2,1.13.25,1.77,1.16,1.69,2.36-.09,1.39-1.02,2-2.31,2.12-.72.07-1.45.08-2.29.11-.67,1.5-.43,2.78-.43,4.02-.01,88.49-.01,176.99,0,265.48,0,.5.02,1,.04,1.49.26-.05.5-.09.72-.09.09,0,.17,0,.25.02,1.47.15,1.72,1.71,1.78,3.39.01.23.01.44.01.67,0,.06,0,.11,0,.17.18,0,.37-.01.56-.02-.01-.1-.03-.19-.03-.29-.04-1.52,1.01-2.34,2.42-2.37,6.33-.14,12.42-2.17,18.72-2.42,7.17-.28,14.04-1.89,20.81-4.03,2.7-1.66,4.2-4.01,3.6-7.77-1.57-9.82-2.35-6.71-2.2-13.59.14-6.25,16.11-229.44,19.01-269.88-3.1,1.1-6.28,1.99-9.49,2.71-21.38,4.81-42.96,8.05-64.96,7.27Z"/>
          <path class="st10" d="M201.22,232.02c-2.63.03-5.32.27-6.48,3.38-2.67,7.15-4.59,14.49-6.03,21.95l19.72-2.77c0-.06,0-.11-.01-.17l-4.14-22.27c-.99-.15-2.05-.14-3.06-.13Z"/>
          <path class="st10" d="M197.98,211.52c-.24,2.2-1.18,3.7-3.2,4.34-.59.19-1.26.57-1.15,1.32.5,3.49-.05,7.13,1.59,10.72,3.2-.71,6.41-.78,9.64-.47l2.21-10.37c.64-2.05-3.35-3.43-4.48-4.41-.1-.11-.2-.22-.29-.34-1.41.15-2.83-.17-4.32-.77Z"/>
          <path class="st14" d="M109.6,277.98c.03.22.05.44.08.66v-.22s-.08-.43-.08-.43Z"/>
          <path class="st14" d="M73.14,259.96l15.89-5.13,3.54-4.2c-.21-.33-.55-.61-1.1-.82-1.33-.5-2.06-.23-2.83.96-.75,1.17-2.14,1.66-3.4,2.18-7.19,2.97-14.61,4.54-22.44,3.8-3.75-.36-6.69-1.67-8.61-4.07-.18.05-.34.11-.5.17l2.72,4.49,16.74,2.61Z"/>
          <path class="st14" d="M96.1,246.43c.15.32.34.63.61.95,1.06,1.28,1,2.95.98,4.53-.05,4.74.07,9.45,1.13,14.1.43,1.87.25,3.87-2.19,4.04-2.28.16-2.85-1.65-3.02-3.61-.4-4.6-.96-9.19-.75-13.83.03-.73.04-1.43-.31-1.99l-3.54,4.2-15.89,5.13-16.74-2.61-2.72-4.49c-1.81.69-2.3,2.25-2.15,4.1.28,3.55.59,7.11,1.06,10.64.51,3.8-.72,7.03-2.89,10-.9,1.23-1.42,2.52-1.39,4.08.39,20.59-.44,41.22,1.83,61.73,1.66,15.02,7.39,27.92,20.08,36.69.15-.12.32-.24.53-.33,5.91-2.67,11.12-6.48,15.55-11.2,18.3-19.48,19.74-47.47,20.68-72.75-1.93-13.28-4.05-26.53-3.9-40.01.02-1.97-.83-4.9,2.18-5.06,1-.05,1.63.2,2.04.63.77.13,1.47.63,1.73,1.61,3.65,13.65,6.55,27.49,8.83,41.43,4.06,24.92,6.17,50.12,7.18,75.34.64,16,.83,32.01.81,48.02,6.3-14.27,12.62-28.54,18.94-42.8.62-1.39,1.46-2.67,3.26-2.4,1.18.18,1.72,1.09,1.87,2.58-.24.6-.55,1.48-.93,2.33-5.98,13.52-11.96,27.04-17.95,40.56-.25.57-.5,1.16-.78,1.72-.75,1.53-1.76,2.82-3.66,1.89-.34-.16-.57-.36-.77-.57-.03,8.15-.1,16.3-.21,24.45,0,.11-.02.2-.03.3,1.19,2.63,1.53,5.26,1.51,7.9l2.42-.32c.34-1.71,1.67-2.08,3.15-1.77,1.64.34,3.27.78,4.85,1.34,15.92,5.62,32.35,8.87,49.11,10.63,1.67.17,3.31.53,4.97.81,1.51.25,3.06.64,3.06,2.39,1.48.07,2.99.13,4.57.17-.01-14.23,0-28.46.02-42.68,0-.83.07-1.68.24-2.5.23-1.13.94-1.91,2.16-1.9,1.35,0,2.12.83,2.32,2.11.11.72.1,1.46.1,2.19,0,7.13,0,14.26,0,21.38h-.03c0,7.13,0,14.26,0,21.38,0,.02,0,.05,0,.07,1.39,0,2.83,0,4.35-.03-.1-1.74,1.22-2.31,2.66-2.53,5.49-.84,10.98-1.78,16.5-2.43,12.99-1.55,25.54-4.85,37.89-9.04,1.1-.37,2.23-.69,3.36-.95-.65-.62-.43-1.62-.24-2.5,2.14-9.7,4.3-19.39,6.47-29.08.06-.25.13-.51.21-.76-1.48-.34-2.93-.97-4.39-1.35-1.21-.31-2.14-.59-3.26.21-1.28.92-2.88.68-4.37.72-5.56.17-11.12.29-16.69.48-2.14.07-3.46-.3-4.08-1.22-.24.1-.48.18-.72.22-7.22,1.24-14.29,3.45-21.72,3.29-5.35-.11-10.4-.72-14.84-4.46-1.87-1.58-4.38-2.69-6.54-4.12-1.1-.72-2.54-1.51-2.71-2.7-.65-4.79-3.67-9.02-3.3-14,.22-2.88.15-5.2-2.7-7.23-3.79-2.69-1.64-10.4,3.18-12.44.59-.25,1.2-.41,1.82-.54l-13.05-92.3c-.39-.36-.76-.72-1.12-1-11.15-8.78-20.85-19.18-31.44-28.58-2.14-1.9-1.68-5.11.95-7.32,1.75-1.48,3.61-2.82,5.31-4.14-.05-1-.65-.98-1.13-1.02-6.83-.55-13.44-2.29-20.1-3.74-1.97-.43-3.96-.41-5.93-.63-2.35-.26-3.55-2.24-2.21-4.02,5.02-6.66,8.7-14.22,13.95-20.72,3.18-.21,4.36,1.47,2.72,4.34-1.55,2.73-3.51,5.22-5.23,7.86-1.59,2.43-3.2,4.87-4.4,7.86,6.72,1.59,13.21,3.18,19.87,3.99,2.4.29,4.78.64,7.16,1.04,1.62.27,3.1.89,3.57,2.66.49,1.85-.74,2.89-2,3.92-2.74,2.23-5.91,3.94-8.26,6.54.26,1.17,1.05,1.77,1.75,2.36,8.77,7.53,16.68,16.02,25.55,23.45l-2.23-15.76c-.1-.68.08-1.37.5-1.93.09-.12.19-.22.3-.32-.85-2.39-1.71-4.78-2.53-7.18-7.08-20.64-12.28-41.68-11.91-63.86-.3.16-.66.22-.8.43-5.63,8.87-13.97,15.04-21.75,21.75-.95.82-2.04,1.49-2.37,2.82-3.44,2.08-6.9,4.15-10.32,6.26-5.75,3.54-11.82,6.38-18.16,8.68-4.19,1.52-7.86,3.61-10.69,6.63l-1.48,7.79-3.33,3.96ZM91.07,270.68c-1.57.82-3.23,1.54-4.92,2.07-6.38,1.99-12.96,2.48-19.62,2.44-3.35-.22-6.7-.38-10.04-.7-1.78-.17-3.53-.9-3.09-3.1.39-2,2.15-1.82,3.82-1.7,7.44.51,14.89.89,22.29-.37,3.21-.55,6.37-1.31,9.27-2.9,1.43-.79,2.94-.97,3.83.68.9,1.66-.14,2.86-1.54,3.59ZM138.43,280.99h28.4v28.4h-28.4v-28.4ZM131.59,316.56c6.5,0,13,0,19.49,0v.05c6.31,0,12.62,0,18.93,0,.75,0,1.51,0,2.26.08,1.26.14,2.18.77,2.19,2.13,0,1.4-1.03,1.94-2.23,2.11-.93.13-1.88.09-2.82.09-11.77,0-23.55,0-35.32.01-3.58,0-3.76.12-3.32,3.68.93,7.66-.79,5.51,6.67,7.52,9.68,2.6,19.24,3.06,28.91.18,2.6-.77,6-.16,7.77-2,1.74-1.81.44-5.04.59-7.64.1-1.63.29-3.21,2.35-3.12,1.85.08,2.07,1.62,2.09,3.12.03,2.73.06,5.46.06,8.2,0,2.19-1.09,3.59-3.23,4.01-7.58,1.47-15.17,2.93-22.77,4.28-1.16.21-2.45-.01-3.64-.24-6.39-1.2-12.75-2.5-19.14-3.68-2.17-.4-3.36-1.5-3.52-3.72-.23-3.19-.58-6.38-.71-9.58-.16-3.95,1.38-5.46,5.38-5.46ZM154.98,329.03c-.03,1.78-1.12,2.68-2.82,2.85-1.71-.22-2.62-1.2-2.53-2.84.09-1.61,1.08-2.65,2.72-2.66,1.65-.01,2.65.98,2.62,2.66ZM140.09,213.11s.08-.05.12-.07c-.02.03-.04.06-.06.08-.02,0-.04,0-.06,0,0,0,0,0,0,0Z"/>
          <path class="st14" d="M336.98,370.08c-3.58-33.29-18.22-85.06-29.28-115.77-4.5-13.23-6.77-19.56-11.66-24.27-1.22-.65-2.52-1.23-3.91-1.72-9.95-3.53-18.98-8.77-28.1-14.62.33,1.62,1.12,2.7,1.93,3.72,3.98,5.04,6.58,10.99,10.63,16,1.65,2.05.53,4.28-2.13,4.44-9.16.53-17.78,4.12-27.41,4.41,1.46,2.31,3.46,3.27,5.1,4.6.57.46,1.03.92,1.43,1.37l35.81-5.02c1.42-.19,2.73.79,2.93,2.21l13.86,98.04c1.43-.36,2.82-.29,3.38,1.44.6,1.84-.65,2.86-2.19,3.33-5.72,1.75-11.45,3.45-17.2,5.09-4.01,1.15-8.12,2.08-11.51,4.69-1.18.91-2.64,1.85-3.17,3.12-2.15,5.08-6.7,5.37-11.08,5.84-2.86.3-5.77.06-8.66.06v.12c-2.78,0-5.56-.04-8.34.02-.06,0-.12,0-.17,0,.57.56.82,1.27.3,2.24-.03.05-.06.08-.08.13.2.3.36.64.5,1.01,1.08,2.94,1.67,6.01,1.77,9.13.39,11.36.96,22.75-1.72,33.96-.04.18.09.4.16.68,5.08,0,10.18.09,15.27-.03,3.24-.08,6.7,1.71,9.65-1.39.78-6.51.94-13.44.88-20.39-.06-6.07-.9-11.96-3.04-17.66-.67-1.78-1.77-4.01.9-4.88,2.57-.84,3.2,1.55,3.8,3.35.86,2.54,1.82,5.1,2.2,7.72,1.61,10.97,1.67,21.96-.23,33.23,3.52.05,6.91-1.01,10.31-1.67,3.69-.71,7.37-1.46,11.01-2.34,18.76-6.83,41.14-13.58,38.07-40.18Z"/>
          <path class="st14" d="M96.1,246.43l3.33-3.96,1.48-7.79c-1.83,1.95-3.32,4.29-4.36,7.11-.59,1.6-1.17,3.1-.45,4.64Z"/>
          <path class="st14" d="M237.94,190.09c.73,13.73-2.42,26.94-5.38,40.17-1.67,7.44-3.92,14.68-6.41,21.84l20.94-2.94c-1.84-1.49-3.83-2.72-5.63-4.17-1.35-1.08-2.72-2.15-2.22-4.14.49-1.96,2.18-2.48,3.87-2.72,7.7-1.06,15.39-2.19,22.95-4.02,1.2-.29,2.39-.59,3.8-.94-1.89-4.23-4.34-7.75-6.75-11.28-.89-1.3-1.88-2.54-2.68-3.9-1.73-2.92-1.32-4.06,2.16-5.78-8.28-7.76-17.89-14.04-23.78-23.82-1.17.39-.9,1.14-.87,1.69Z"/>
          <path class="st2" d="M126.93,331.6c.16,2.22,1.36,3.32,3.52,3.72,6.39,1.18,12.76,2.48,19.14,3.68,1.19.22,2.47.44,3.64.24,7.6-1.36,15.19-2.81,22.77-4.28,2.14-.41,3.23-1.82,3.23-4.01,0-2.73-.04-5.46-.06-8.2-.02-1.5-.24-3.03-2.09-3.12-2.06-.09-2.25,1.49-2.35,3.12-.15,2.6,1.14,5.84-.59,7.64-1.77,1.84-5.17,1.22-7.77,2-9.66,2.88-19.23,2.42-28.91-.18-7.46-2-5.74.14-6.67-7.52-.43-3.57-.26-3.68,3.32-3.68,11.77-.02,23.55,0,35.32-.01.94,0,1.89.04,2.82-.09,1.2-.16,2.24-.71,2.23-2.11,0-1.36-.93-1.99-2.19-2.13-.75-.08-1.5-.08-2.26-.08-6.31,0-12.62,0-18.93,0v-.05c-6.5,0-13,0-19.49,0-4,0-5.54,1.51-5.38,5.46.13,3.2.48,6.39.71,9.58Z"/>
          <path class="st2" d="M140.21,213.04s-.08.05-.12.07c0,0,0,0,0,0,.02,0,.04,0,.06,0,.02-.03.04-.05.06-.08Z"/>
          <path class="st2" d="M126.6,421.68c1.89.93,2.9-.36,3.66-1.89.28-.56.52-1.15.78-1.72,5.98-13.52,11.97-27.04,17.95-40.56.38-.85.69-1.73.93-2.33-.15-1.49-.69-2.4-1.87-2.58-1.8-.27-2.64,1.01-3.26,2.4-6.33,14.26-12.64,28.53-18.94,42.8,0,1.1,0,2.21-.01,3.31.19.21.43.41.77.57Z"/>
          <path class="st2" d="M88.78,266.42c-2.9,1.59-6.06,2.36-9.27,2.9-7.4,1.26-14.85.88-22.29.37-1.67-.12-3.42-.3-3.82,1.7-.43,2.2,1.31,2.93,3.09,3.1,3.34.32,6.69.48,10.04.7,6.66.04,13.24-.44,19.62-2.44,1.69-.53,3.34-1.25,4.92-2.07,1.4-.73,2.44-1.93,1.54-3.59-.89-1.64-2.39-1.46-3.83-.68Z"/>
          <path class="st2" d="M149.63,329.04c-.09,1.64.81,2.62,2.53,2.84,1.7-.17,2.79-1.06,2.82-2.85.03-1.67-.97-2.67-2.62-2.66-1.64.01-2.63,1.05-2.72,2.66Z"/>
          <path class="st2" d="M218.5,270.52c1.62,0,2.93-1.31,2.93-2.93s-1.31-2.93-2.93-2.93-2.93,1.31-2.93,2.93,1.31,2.93,2.93,2.93Z"/>
          <path class="st2" d="M255.52,265.64c1.62,0,2.93-1.31,2.93-2.93s-1.31-2.93-2.93-2.93-2.93,1.31-2.93,2.93,1.31,2.93,2.93,2.93Z"/>
          <path class="st2" d="M204.2,171.01c4.98-2.57,8.94-6.25,11.3-11.42,1.3-2.85.42-4.37-2.68-4.5-3.74-.16-7.49-.04-11.24-.04v-.03c-3.64,0-7.28-.1-10.92.03-3.49.13-4.41,1.69-2.92,4.82,2.33,4.91,6.15,8.43,10.87,11.01,1.8.98,3.78,1.06,5.58.13ZM192.3,159.44h18.11c-2.5,3.28-4.89,6.75-8.46,7.04-4.04.33-6.23-3.82-9.65-7.04Z"/>
          <path class="st2" d="M199.03,144.82c.61.11,1.22.14,1.83.16,0,0,.5.02.66.02.75,0,1.34-.09,1.85-.29.92-.35,1.36-.88,1.21-1.45-.11-.32-.43-.55-.86-.83-.34-.23-.7-.4-1.01-.54-.22-.1-.46-.19-.69-.27-.29-.1-.57-.2-.82-.34-.44-.25-.82-.6-1.09-1.02-.21-.32-.32-.64-.33-.93-.02-.51.24-1.04.48-1.51.25-.51.49-1.05.71-1.64.67-1.36.85-2.6.48-3.42-.28-.63-.85-1.02-1.52-1.04-.71,0-1.01.51-1.25.91l-.98,1.61c-.27.45-.55.91-.81,1.37-.21.38-.4.77-.6,1.17-.16.32-.32.64-.52,1.02-.35.65-.71,1.33-.85,2.13-.19,1.15.15,2.31.98,3.25.9,1.03,2.2,1.46,3.13,1.63Z"/>
          <path class="st2" d="M180.74,120.45c-.89-1.26-2.53-2.02-4.38-2.02-2.01,0-3.77.87-4.58,2.26-.57.97-.94,2.62.47,5.03l.06.11.11.07c1.24.84,2.66,1.31,3.99,1.31,2.63,0,4.5-1.76,5.01-4.71l.03-.14-.65-1.84-.05-.06Z"/>
          <path class="st2" d="M226.74,127.21c1.33,0,2.75-.46,3.99-1.31l.11-.07.06-.11c1.41-2.4,1.03-4.06.47-5.03-.81-1.4-2.57-2.26-4.58-2.26-1.86,0-3.5.75-4.38,2.02l-.05.06-.65,1.84.02.14c.5,2.95,2.37,4.71,5.01,4.71Z"/>
          <path class="st2" d="M170.71,179.09c-6.73-4.2-20.42-31-20.42-31-24.67-8.16-15.31-26.08-12.57-29.66-1.27-.85-4.02-2.78-5.18-3.74,4.83-5.09,1.48-26.37,8.2-47.47,4.16-21.28,33.07-41.09,47.15-39.11,11.61-10.98,26.8-1.63,26.8-1.63,0,0,23.8,9.07,32.23,14.28,16.37,12.98,21.81,59.04,22.97,74.49l-6.69,1.18c8.62,11.54,10.98,26.49-8.98,30.88-5.61,1.71-11.69,25.26-20.86,31.64.82-.03,1.6,0,2.33.16,2.29-1.96,4.44-4.18,6.43-6.71,1.93-2.47,3.35-5.18,4.56-7.95,1.81.32,3-.62,3.79-2.31,1.88-4.04,3.55-8.15,5.01-12.31,11.19-3.43,16.26-9.78,15.91-19.97.03-4.94-1.25-8.86-3.72-11.35-.28-.28-.6-.5-.91-.74,2.07.39,4.2.73,5.68-1.27,1.7-2.29.43-4.46-.77-6.52-.64-1.09-1.31-2.08-1.43-3.47-1.18-14.64-2.72-29.16-7.24-43.3-5.61-17.58-17.49-28.5-34.32-34.82-5.37-2.02-10.93-3.31-16.32-5.45-8.29-3.3-17.45-4.03-25.39,2.36-.37.3-.98.4-1.49.43-3.89.23-7.54,1.51-11.13,2.81-15.29,5.52-26.57,15.41-32.81,30.68-5.4,13.21-6.1,27.37-8.33,41.21-.63,3.91-.16,7.84-2.49,11.59-2.11,3.4.29,6.3,4.4,5.95.37-.03.73-.08,1.1-.14-1.86,1.49-3.26,3.49-3.93,5.88-2.35,8.49-.66,15.52,5.05,20.89,2.67,2.51,6.21,4.29,10.5,5.35,1.36,3.93,2.91,7.8,4.76,11.59.86,1.76,1.8,3.18,3.69,2.96,2.41,5.69,6.01,10.59,10.76,14.62,1.16-.27,2.39-.18,3.64-.03Z"/>
          <path class="st2" d="M173.23,181.51c-.08.69-.35,1.18-.77,1.52,7.18,4.44,15.19,7.66,24.48,9.84.26.06.52.13.78.19,1.17.29,2.37.59,3.58.59.49,0,.94-.05,1.39-.15,9.6-2.14,19.34-4.99,27.82-10.52-.47-.41-.73-1.01-.65-1.92.16-1.75,1.56-2.01,3.02-2.09.16,0,.32,0,.48-.01,9.18-6.38,15.25-29.94,20.86-31.64,19.95-4.39,17.6-19.34,8.98-30.88l6.69-1.18c-1.16-15.44-6.6-61.5-22.97-74.49-8.43-5.21-32.23-14.28-32.23-14.28,0,0-15.19-9.35-26.8,1.63-14.08-1.99-42.99,17.82-47.15,39.11-6.71,21.09-3.37,42.38-8.2,47.47,1.15.96,3.91,2.89,5.18,3.74-2.74,3.58-12.1,21.5,12.57,29.66,0,0,13.69,26.81,20.42,31,.28.04.57.07.86.11,1.15.16,1.8,1.09,1.67,2.31ZM257.05,120.74c-1.14,6.38-1.71,12.87-3.66,19.09-.33,1.06-.7,2.12-1.38,3.12.05-9.34-1.27-18.57-1.03-27.95.68-.2.88-.31,1.08-.31,5.71.18,5.98.48,4.99,6.05ZM266.1,125.63c1.47,6.39-.23,14.57-7.46,17.42-.38.15-.76.33-1.14.5,1.63-5.57,2.88-11.26,3.65-17.1.25-1.89.49-3.8.88-5.72,2.17,1.09,3.58,2.77,4.07,4.91ZM136.49,112.51c1.95-2.76,1.01-5.62,1.39-8.29,1.42-10.12,2.66-20.27,4.3-30.36,3.55-21.82,19.36-38.22,40.94-42.78.61-.13,1.24-.39,2.1.29-.42,1.78-.9,3.7-1.34,5.63-1.63,7.18-2.7,14.45-3.67,21.74-.1.73-.19,1.5-.1,2.22.15,1.27.8,2.26,2.2,2.34,1.38.08,2.24-.74,2.48-2.02.41-2.09.72-4.2.98-6.32,1.04-8.37,2.67-16.61,5.13-24.69.73-2.39,2.11-3.5,4.46-3.87,4.15-.66,8.26-.67,12.41-.04,2.48.38,3.91,1.54,4.69,4.04,2.94,9.41,4.38,19.09,5.71,28.81.06.42.09.85.16,1.27.28,1.58.86,3.03,2.8,2.78,1.9-.24,2.32-1.8,2.09-3.38-.8-5.59-1.62-11.18-2.59-16.74-.7-3.96-1.65-7.88-2.53-11.97.55-.1.97-.3,1.33-.22,18.71,4.55,32.6,14.45,38.79,33.65,4.56,14.13,6.01,28.67,7.25,43.3.06.73.19,1.47.43,2.16.24.68.66,1.3,1.53,2.98-44.17-11.35-87.49-11.36-130.98-.53ZM144.21,143.09c-.38-.22-.75-.44-1.13-.63-4.13-2.11-8.78-9.33-5.64-18.14.55-1.55,1.84-2.83,3.72-3.72.02-.01.05-.02.07-.03,0,.06.02.12.03.18,1.05,7.91,2.54,15.68,4.73,23.27-.61-.25-1.21-.59-1.79-.93ZM151.3,142.83c-2.01-4.54-3.02-9.28-3.75-14.1-.46-3.05-.98-6.09-1.48-9.13-.67-4.09-.52-4.31,3.57-4.78.72-.08,1.46-.01,2.49-.01.71,9.4-1.07,18.68-.84,28.03ZM164.32,168.84c-3-3.98-4.68-8.57-6.3-13.02l-.36-.99c-.02-.06-.04-.12-.07-.18-.35-2.29-.58-4.6-.78-6.92-.92-10.67.55-21.3.5-31.96-.01-1.91,1.1-2.22,2.58-2.53,8.16-1.67,16.43-2.4,24.71-3.21,18.6-1.81,37.05-.32,55.42,2.56,5.94.93,5.92,1.13,6.1,7.01.35,11.31,1.47,22.65-.17,33.88-.31.78-.64,1.56-.94,2.32-1.76,4.48-3.58,9.12-6.49,13.23-5.49,7.75-13.63,11.93-20.87,15-.56.24-1.12.48-1.69.72-4.29,1.85-8.73,3.77-13.35,3.77-1.13,0-2.23-.12-3.29-.35-12.08-2.67-25.68-7.05-34.98-19.36Z"/>
          <path class="st2" d="M252.42,106.23c1.27.81,2.67,1.18,3.71-.22,1.13-1.51.4-2.84-.92-3.85-2.3-1.76-4.91-2.97-7.54-4.13-14.66-6.46-30.25-7.55-46.37-8.03-11.4.43-23.21.97-34.7,4.19-6.38,1.79-12.58,4.03-18.14,7.72-1.43.95-2.49,2.29-1.3,4.01,1.1,1.58,2.59,1.08,3.95.19,5.7-3.71,11.99-5.96,18.54-7.56,16.23-3.97,32.67-4.36,49.18-2.61,11.82,1.25,23.35,3.75,33.6,10.28Z"/>
          <path class="st5" d="M148.96,303.72c-.08-.09-.17-.16-.28-.2-.11-.05-.23-.07-.35-.07s-.24.02-.35.07c-.11.04-.2.11-.28.2-.08.09-.14.2-.19.33-.05.13-.07.29-.07.47s.02.33.07.47c.05.13.11.24.19.33.08.09.17.15.28.2.21.09.49.09.7,0,.11-.04.2-.11.28-.2.08-.09.14-.2.19-.33.05-.13.07-.29.07-.47s-.02-.33-.07-.47c-.05-.13-.11-.24-.19-.33Z"/>
          <path class="st5" d="M166.83,280.99h-28.4v28.4h28.4v-28.4ZM157.05,284.58h3.07v16.31l-3.07-3.07v-13.24ZM144.98,284l3.07,3.07v13.24h-3.07v-16.31ZM146.73,305.89l-1.4-1.46v1.46h-.38v-2.71h.38v1.16l1.24-1.18h.55s-1.32,1.24-1.32,1.24l1.44,1.49h-.51ZM149.54,305.1c-.06.18-.15.33-.26.46-.11.13-.25.23-.41.3-.16.07-.34.11-.54.11s-.39-.04-.55-.11c-.16-.07-.3-.17-.41-.3-.11-.13-.2-.28-.26-.46-.06-.18-.09-.37-.09-.58s.03-.41.09-.58c.06-.18.15-.33.26-.46.11-.13.25-.23.41-.3.16-.07.34-.11.54-.11s.39.04.55.11c.16.07.3.17.41.3.11.13.2.28.26.46.06.18.09.37.09.58s-.03.4-.09.58ZM151.78,305.89l-1.4-1.46v1.46h-.38v-2.71h.38v1.16l1.24-1.18h.55s-1.32,1.24-1.32,1.24l1.44,1.49h-.51ZM154.68,304.81c0,.06,0,.13-.01.2s-.02.14-.04.2c-.03.1-.07.2-.13.29-.06.09-.13.17-.23.23-.09.06-.2.11-.33.15-.13.04-.28.05-.45.05s-.31-.02-.43-.05c-.12-.03-.23-.08-.32-.14-.09-.06-.17-.13-.22-.21-.06-.08-.1-.17-.13-.27-.02-.07-.04-.14-.05-.22,0-.08-.01-.15-.01-.23v-1.7h.44v1.7c0,.06,0,.12.01.18,0,.06.02.11.04.16.05.12.13.22.24.28.11.07.26.11.44.11.1,0,.19-.01.27-.03.08-.02.14-.05.2-.09.06-.04.1-.08.14-.14.04-.05.07-.11.09-.18.01-.04.02-.09.03-.14,0-.05,0-.1,0-.15v-1.7h.44v1.7ZM157.31,304.97c-.04.14-.1.27-.18.39-.08.12-.19.22-.31.3-.12.08-.27.15-.43.19-.09.03-.19.04-.3.06-.11,0-.22.02-.35.02h-.66v-2.81h.67c.12,0,.24,0,.35.02.11.01.21.03.3.06.16.05.31.11.43.19.12.08.23.18.31.29.08.11.14.24.18.38.04.14.06.29.06.45s-.02.32-.06.46ZM160.22,305.1c-.06.18-.15.33-.26.46-.11.13-.25.23-.41.3-.16.07-.34.11-.54.11s-.39-.04-.55-.11c-.16-.07-.3-.17-.41-.3-.11-.13-.2-.28-.26-.46-.06-.18-.09-.37-.09-.58s.03-.41.09-.58c.06-.18.15-.33.26-.46.11-.13.25-.23.41-.3.16-.07.34-.11.54-.11s.39.04.55.11c.16.07.3.17.41.3.11.13.2.28.26.46.06.18.09.37.09.58s-.03.4-.09.58Z"/>
          <path class="st5" d="M156.32,303.57c-.08-.02-.17-.04-.27-.05-.1,0-.21-.01-.34-.01h-.21v2.03h.21c.13,0,.24,0,.34-.01.1,0,.19-.03.27-.05.2-.06.36-.18.47-.34.11-.16.16-.37.16-.63s-.06-.46-.16-.61c-.11-.15-.27-.26-.47-.33Z"/>
          <path class="st5" d="M159.63,303.72c-.08-.09-.17-.16-.28-.2-.11-.05-.23-.07-.35-.07s-.24.02-.35.07c-.11.04-.2.11-.28.2-.08.09-.14.2-.19.33-.05.13-.07.29-.07.47s.02.33.07.47c.05.13.11.24.19.33.08.09.17.15.28.2.21.09.49.09.7,0,.11-.04.2-.11.28-.2.08-.09.14-.2.19-.33.05-.13.07-.29.07-.47s-.02-.33-.07-.47c-.05-.13-.11-.24-.19-.33Z"/>
          <polygon class="st9" points="148.05 287.07 144.98 284 144.98 300.31 148.05 300.31 148.05 287.07"/>
          <polygon class="st4" points="160.12 284.58 157.05 284.58 157.05 297.82 160.12 300.89 160.12 284.58"/>
          <path class="st0" d="M154.24,304.82s0,.1,0,.15c0,.05-.01.1-.03.14-.02.07-.05.13-.09.18-.04.05-.08.1-.14.14-.06.04-.12.07-.2.09-.08.02-.17.03-.27.03-.18,0-.33-.04-.44-.11-.11-.07-.19-.17-.24-.28-.02-.05-.03-.1-.04-.16,0-.06-.01-.12-.01-.18v-1.7h-.44v1.7c0,.07,0,.15.01.23,0,.08.03.15.05.22.03.1.08.19.13.27.06.08.13.15.22.21.09.06.2.11.32.14.12.03.27.05.43.05s.32-.02.45-.05c.13-.04.24-.09.33-.15.09-.06.17-.14.23-.23.06-.09.1-.18.13-.29.02-.06.03-.13.04-.2s.01-.14.01-.2v-1.7h-.44v1.7Z"/>
          <path class="st0" d="M157.13,303.68c-.08-.11-.18-.21-.31-.29-.12-.08-.27-.15-.43-.19-.09-.03-.19-.04-.3-.06-.11-.01-.22-.02-.35-.02h-.67v2.81h.66c.12,0,.24,0,.35-.02.11-.01.21-.03.3-.06.16-.05.31-.11.43-.19.12-.08.23-.18.31-.3.08-.12.14-.25.18-.39.04-.14.06-.3.06-.46s-.02-.31-.06-.45c-.04-.14-.1-.27-.18-.38ZM156.79,305.13c-.11.16-.27.27-.47.34-.08.02-.17.04-.27.05-.1,0-.21.01-.34.01h-.21v-2.03h.21c.13,0,.24,0,.34.01.1,0,.19.03.27.05.21.06.36.18.47.33.11.15.16.36.16.61s-.06.46-.16.63Z"/>
          <path class="st0" d="M159.96,303.48c-.11-.13-.25-.23-.41-.3-.16-.07-.34-.11-.55-.11s-.38.04-.54.11c-.16.07-.3.17-.41.3-.11.13-.2.28-.26.46-.06.18-.09.37-.09.58s.03.4.09.58c.06.18.15.33.26.46.11.13.25.23.41.3.16.07.35.11.55.11s.38-.04.54-.11c.16-.07.3-.17.41-.3.11-.13.2-.28.26-.46.06-.18.09-.37.09-.58s-.03-.41-.09-.58c-.06-.18-.15-.33-.26-.46ZM159.82,304.99c-.05.13-.11.24-.19.33-.08.09-.17.15-.28.2-.21.09-.49.09-.7,0-.11-.04-.2-.11-.28-.2-.08-.09-.14-.2-.19-.33-.05-.13-.07-.29-.07-.47s.02-.33.07-.47c.05-.13.11-.24.19-.33.08-.09.17-.16.28-.2.11-.05.23-.07.35-.07s.24.02.35.07c.11.04.2.11.28.2.08.09.14.2.19.33.05.13.07.29.07.47s-.02.33-.07.47Z"/>
          <path class="st0" d="M149.29,303.48c-.11-.13-.25-.23-.41-.3-.16-.07-.35-.11-.55-.11s-.38.04-.54.11c-.16.07-.3.17-.41.3-.11.13-.2.28-.26.46-.06.18-.09.37-.09.58s.03.4.09.58c.06.18.15.33.26.46.11.13.25.23.41.3.16.07.35.11.55.11s.38-.04.54-.11c.16-.07.3-.17.41-.3.11-.13.2-.28.26-.46.06-.18.09-.37.09-.58s-.03-.41-.09-.58c-.06-.18-.15-.33-.26-.46ZM149.15,304.99c-.05.13-.11.24-.19.33-.08.09-.17.15-.28.2-.21.09-.48.09-.7,0-.11-.04-.2-.11-.28-.2-.08-.09-.14-.2-.19-.33-.05-.13-.07-.29-.07-.47s.02-.33.07-.47c.05-.13.11-.24.19-.33.08-.09.17-.16.28-.2.11-.05.23-.07.35-.07s.24.02.35.07c.11.04.2.11.28.2.08.09.14.2.19.33.05.13.07.29.07.47s-.02.33-.07.47Z"/>
          <polygon class="st0" points="152.17 303.15 151.61 303.16 150.37 304.34 150.37 303.18 150 303.18 150 305.89 150.37 305.89 150.37 304.43 151.78 305.89 152.29 305.89 150.84 304.4 152.17 303.15"/>
          <polygon class="st0" points="147.12 303.15 146.56 303.16 145.32 304.34 145.32 303.18 144.95 303.18 144.95 305.89 145.32 305.89 145.32 304.43 146.73 305.89 147.23 305.89 145.79 304.4 147.12 303.15"/>
          <path class="st15" d="M108.94,378.9c-.61.45-1.22.89-1.83,1.32,1.97-.79,3.21-1.32,3.21-1.32l.81-1.15h0c-1.23-.3-1.57.69-2.19,1.15Z"/>
          <path class="st15" d="M121.13,402.85c-.21-24.98-1.12-49.98-3.59-74.85-1.84-18.55-4.59-37.02-8.54-55.23.18,1.74.38,3.47.6,5.2l.08.43v.22c.7,5.53,1.49,11.06,2.23,16.59,2.12,16.01,3.58,32.12,4.34,48.29.98,21.03-.76,41.99-.99,62.99-.12,10.53,1.96,20.43,5.82,29.83.11-11.16.16-22.32.07-33.48Z"/>
          <path class="st15" d="M74.98,382.91c4.68,2.08,9.61,2.27,14.55.74,4.37-1.36,8.51-3.53,12.59-5.73,3.86-2.09,6.16-5.71,8.89-8.76,1.73-1.94.92-5.52.62-8.27-.65-5.99-.23-11.97-.34-17.95-.12-6.73-1.11-13.41-1.45-20.1-1.58,12.8-4.69,25.49-11.18,36.75-5.61,9.73-13.62,18.22-23.69,23.32Z"/>
          <path class="st11" d="M72.8,381.78c4.76-3.34,15.63-10.97,18.29-12.84,3.44-2.41,14.11-28.92,14.8-30.98.45-1.34,2.21-14.63,3.38-23.76-.56-6.15-1.4-12.27-2.29-18.38-.94,25.28-2.38,53.27-20.68,72.75-4.43,4.72-9.65,8.53-15.55,11.2-.21.09-.38.21-.53.33.68.47,1.36.93,2.08,1.38.17.1.33.19.5.29Z"/>
          <path class="st11" d="M109.27,314.2c-1.17,9.12-2.93,22.41-3.38,23.76-.69,2.07-11.36,28.57-14.8,30.98-2.67,1.87-13.53,9.49-18.29,12.84.72.42,1.45.8,2.19,1.13,10.07-5.09,18.08-13.59,23.69-23.32,6.49-11.26,9.6-23.95,11.18-36.75-.01-.21-.03-.42-.03-.63-.12-2.68-.31-5.34-.55-8.01Z"/>
          <path class="st11" d="M125.84,421.11c-.8-.87-.52-2.09-.01-3.25,0-.02.02-.04.03-.06.02-16.01-.17-32.02-.81-48.02-1-25.22-3.12-50.42-7.18-75.34-2.27-13.94-5.18-27.78-8.83-41.43-.26-.99-.96-1.49-1.73-1.61.94,1,.62,2.95.63,4.37.04,4.61.33,9.19.75,13.76,3.84,13.94,6.94,28.07,9.29,42.34,1.64,9.99,2.92,20.04,3.82,30.12,1.67,18.67,2.05,37.43,2.43,56.18.32,15.62.64,31.23.96,46.85h0c.15.28.29.57.42.86.01-.1.03-.19.03-.3.1-8.15.18-16.3.21-24.45Z"/>
          <path class="st11" d="M125.84,421.11c0-1.1.01-2.21.01-3.31,0,.02-.02.04-.03.06-.51,1.16-.79,2.37.01,3.25Z"/>
          <path class="st11" d="M125.17,444.99h0c-.32-15.61-.64-31.22-.96-46.84-.38-18.74-.77-37.5-2.43-56.18-.9-10.08-2.17-20.13-3.82-30.12-2.35-14.26-5.45-28.4-9.29-42.34.1,1.09.21,2.17.33,3.26,3.95,18.21,6.7,36.68,8.54,55.23,2.47,24.87,3.37,49.87,3.59,74.85.09,11.16.05,22.32-.07,33.48,1.18,2.88,2.52,5.71,4.03,8.5.03.05.05.11.08.16Z"/>
          <path class="st15" d="M271.88,464.63c.79-.32,1.58-.65,2.37-.99.16-.07.31-.15.45-.22l-2.01-.34c-.25.55-.57,1.08-.82,1.55Z"/>
          <path class="st15" d="M267.69,462.24l1.22-5.25c-.28.09-.57.18-.84.28-17.85,6.63-36.5,9.52-55.25,11.93-.42.05-.84.07-1.09.09-1.77.01-3.22-.34-3.33-2.26-1.52.02-2.96.03-4.35.03,0,1.8,0,3.86-2.5,3.8-2.3-.06-2.3-2.09-2.3-3.78v-.08c-1.58-.04-3.1-.1-4.57-.17,0,.14.01.26,0,.41-.27,2.1-2.04,2.07-3.65,1.98-17.76-2.02-35.34-4.91-52.34-10.65-2.39-.81-4.8-1.52-7.19-2.33-1.31-.44-2.25-1.3-1.95-2.81l-2.42.32c-.01,1.71-.17,3.43-.35,5.16-.3,2.87.55,4.14,3.06,5.23,4.37,1.89,8.88,3.31,13.47,4.38,33.2,7.79,66.58,10.17,100.29,3.21,3.85-.8,7.73-1.47,11.58-2.25,9.27-2.71,15.16-5.05,15.16-5.05,0,0-.02.29-.06.85.54-.21,1.09-.43,1.63-.65.25-.47.57-1,.82-1.55l-5.01-.84Z"/>
          <path class="st15" d="M270.25,465.28c.04-.55.06-.85.06-.85,0,0-5.89,2.34-15.16,5.05,3.55-.72,7.09-1.52,10.56-2.6,1.54-.48,3.04-1.02,4.53-1.61Z"/>
          <path class="st2" d="M174.74,464.99c7.45.85,13.3,1.51,19.92,1.84,0-1.75-1.54-2.14-3.06-2.39-1.66-.28-3.3-.63-4.97-.81-16.76-1.75-33.19-5-49.11-10.63-1.58-.56-3.21-1-4.85-1.34-1.48-.31-2.8.05-3.15,1.77l11.13,2.25s22.03,7.92,34.08,9.29Z"/>
          <path class="st2" d="M131.47,456.25c2.39.81,4.8,1.52,7.19,2.33,17,5.73,34.58,8.63,52.34,10.65,1.62.1,3.38.12,3.65-1.98.02-.15,0-.28,0-.41-6.62-.33-12.48-.99-19.92-1.84-12.05-1.38-34.08-9.29-34.08-9.29l-11.13-2.25c-.3,1.51.63,2.37,1.95,2.81Z"/>
          <path class="st15" d="M273.54,453.33c.15.63.07,1.18-.18,1.62l-.64,5.6,2.05,2.82c1.34-.73,1.83-1.76,1.57-3.42-.97-6.26-.4-12.15,2.88-17.9,4.3-7.51,6.61-15.73,7.95-24.23-.05,0-.09.02-.14.03-1.32.25-2.63.49-3.94.77-1.11,13.37-9.56,23.52-11.27,32.98.83.14,1.47.73,1.71,1.72Z"/>
          <path class="st15" d="M278.83,419.75c-.03.5-.15.99-.26,1.48-1.07,4.85-2.15,9.7-3.22,14.54h-.03c-1.08,4.84-2.14,9.69-3.23,14.53-.1.44-.2.91-.38,1.31.04,0,.07,0,.11.01,1.71-9.46,10.16-19.62,11.27-32.98-1.4.3-2.79.64-4.17,1.08-.03.01-.07.02-.1.03Z"/>
          <path class="st15" d="M271.97,456.06c-.12.05-.25.08-.37.13.14,1.46.49,2.92,1.13,4.37l.64-5.6c-.28.49-.76.86-1.39,1.1Z"/>
          <path class="st15" d="M272.7,463.08l2.01.34s.04-.02.06-.03l-2.05-2.82c.56.8.36,1.68-.02,2.52Z"/>
          <path class="st15" d="M268.91,456.99l-1.22,5.25,5.01.84c.38-.84.58-1.72.02-2.52-.64-1.46-.99-2.91-1.13-4.37-.88.3-1.79.53-2.68.81Z"/>
          <path class="st2" d="M269.26,455.49l.68-2.93c-.09-.01-.17-.01-.27-.04-.4-.1-.68-.26-.88-.45-1.13.27-2.26.58-3.36.95-12.35,4.19-24.9,7.5-37.89,9.04-5.52.66-11,1.59-16.5,2.43-1.44.22-2.76.79-2.66,2.53,13.73-.21,26.94-3.77,38.99-4.81,7.94-.68,16.78-4.33,21.88-6.74Z"/>
          <path class="st2" d="M211.72,469.3c.25-.02.67-.04,1.09-.09,18.75-2.41,37.4-5.3,55.25-11.93.28-.1.56-.19.84-.28l.35-1.5c-5.1,2.41-13.94,6.06-21.88,6.74-12.05,1.03-25.25,4.6-38.99,4.81.11,1.92,1.56,2.27,3.33,2.26Z"/>
          <path class="st2" d="M273.54,453.33l-.18,1.62c.25-.45.34-.99.18-1.62Z"/>
          <path class="st2" d="M273.54,453.33c-.24-.98-.88-1.57-1.71-1.72-.17.93-.27,1.85-.29,2.77,1.27-.64,2.01-1.05,2.01-1.05Z"/>
          <path class="st2" d="M269.94,452.56l-.68,2.93c.88-.41,1.64-.79,2.28-1.11.02-.92.13-1.84.29-2.77-.04,0-.07,0-.11-.01-.29.66-.78,1.11-1.78.96Z"/>
          <path class="st2" d="M271.59,456.19c.12-.04.25-.08.37-.13.63-.24,1.11-.61,1.39-1.1l.18-1.62s-.74.41-2.01,1.05c-.02.6,0,1.2.06,1.8Z"/>
          <path class="st2" d="M271.53,454.38c-.63.32-1.4.7-2.28,1.11l-.35,1.5c.89-.27,1.8-.5,2.68-.81-.06-.6-.08-1.2-.06-1.8Z"/>
          <path class="st1" d="M118.66,221.4c3.99-1.91,7.89-4,11.68-6.26,3.89-2.66,7.58-5.2,10.56-7.03.02-.01.04-.03.07-.04,4.18-3.1,8.14-6.48,11.83-10.14,5.67-6.47,10.02-13.41,15.94-17.49-.56-.43-1.13-.86-1.67-1.32-1.16.27-2.24.89-3.19,2.17-3.07,4.12-6.08,8.37-9.71,11.96-13.17,12.99-27.32,24.6-45.25,30.65-2.42.82-4.6,1.88-6.56,3.16l-.77,4.06c4.81-4.35,10.42-7.76,17.08-9.72Z"/>
          <path class="st1" d="M69.16,383.37c-9.98-3.33-15.85-15.1-19.26-29.65-6.31-21.42-4.18-48.42-4.78-68.6.29-7.19,0-6.75,2.77-9.92,4.53-3.29-2.22-17.65.81-21.49,1.18-2.04,2.28-2.77,3.54-2.78l.1-.28-1.33-2.19s-.06.04-.1.06c-2.84,1.99-4.52,4.54-4.27,8.23.16,2.31.42,4.59.7,6.89.47,3.76.98,7.66-1.53,10.94-2,2.61-2.47,5.44-2.38,8.58.17,6.3.33,12.61.24,18.91-.18,13.46.12,26.93,1.51,40.3,1.37,13.22,4.89,25.78,14.97,35.53,7.17,6.94,14.84,12.59,25.5,11.38,8.05-.91,14.98-4.5,21.45-9.07-3.93,1.58-10.78,4.19-16.56,5.7-6.58,2.24-13.81,2.37-21.39-2.55Z"/>
          <path class="st1" d="M344.66,349.24c-4.39-16.47-9.54-32.73-13.31-49.37-4.57-20.15-11.99-39.35-19.74-58.44-.03-.07-.06-.15-.09-.22-2.53-6.37-6.1-11.96-12.67-15.15-2.17-1.05-4.38-2.06-6.63-2.91-7.9-2.99-15.45-6.69-22.22-11.73-11.5-8.54-22.26-17.92-30.55-29.77-1.07-1.53-2.33-2.26-3.75-2.56-.64.55-1.28,1.07-1.94,1.58l2.23.33c.66,1.17,1.55,2.45,2.61,3.83.16-.11.29-.13.38-.02,3.72,3.97,8.31,9.11,13.35,14.31,7.22,6.63,15.23,13.16,21.04,17.48,18.27,12.25,34.24,8.72,39.26,32.85,11.18,29.98,18.16,64.17,28.75,96.7,15.66,49.3-13.56,60.6-51.47,69.03-.28,9.67-3.12,15.54-5.86,21.14-1.67,5.61-3.58,12-5.13,17.18.09,6.54,2.16,11.1-2.26,12.44,0,0-18.59,276.52-18.59,281.28.56,6.08,4.6,12.74-2.57,15.18,15.97,30.27,47.8,29.81,41.43,46.71-.9,4.44-14.35,5.73-25.8,5.34-11.45-.39-23.16-8.43-29.08-12.03-5.15-4.56-32.95-8.98-36.29-13.96l-1.61-7.53h-4.18c-.7,15.87-17.1,12.77-30.56,17.05-21.11,9.65-21.94,20.82-52.18,16.47-15.83-2.89-12.35-10.68-9.46-15.25,2.9-4.57,14.02-9.39,21.94-15.05,7.91-5.66,17.38-19.83,17.38-19.83,0,0-.13-.56-.5-1.44-.38-.19-.72-.38-1-.58-7.76-5.29-1.57-17.19-1.57-17.19l-18.27-273.68c-.71-5.03-1.37-7.9-1.95-8.08l.08-.99c-.03-.06-.06-.12-.09-.18.08-.4.14-.79.2-1.18l.29-3.45c.06-3.4-.53-6.65-1.46-9.82-.99-.17-1.86-.91-1.85-2.21,0-.23,0-.46,0-.69-9.01-15.47-8.61-40.59-7.75-59.02.04-2.4.07-4.8.07-7.2,0-1.11-.38-1.97-.97-2.6l-1.19,1.69c0,1.12.07,2.24-.01,3.36-.61,8.39-.43,16.81-.64,25.21-.33,12.9,2.32,25.11,8.3,36.47,2.98,5.66,4.06,11.34,3.02,17.56-.46,2.74.17,4.63,2.01,6.06-.27.51-.33,1.15-.26,1.84.1.94.32,1.87.39,2.81,3.16,44.39,6.32,88.77,9.46,133.16,3.25,45.96,6.48,91.92,9.77,137.88.19,2.59-.04,4.92-1.1,7.34-2.16,4.96-.97,9.87,2.81,13.28-.86,1.07-1.64,2.22-2.38,3.35l-.26.38c-3.33,5.08-7.27,9.38-11.71,12.79-6.03,4.65-12.59,9.23-20.05,14.01-2.58,1.66-4.6,3.97-5.99,6.87-1.67,3.5-2.01,6.36-1.03,8.77,1.01,2.47,3.37,4.35,7.23,5.76,3.63,1.31,7.5,1.92,12.17,1.92,2.89,0,5.77-.24,8.44-.49,8.87-.85,19.04-2.26,27.46-8.4,8.92-6.49,18.75-9.67,27.19-11.92.87-.24,1.72-.44,2.57-.65,2.65-.63,5.33-1.28,7.71-2.62,1.98-1.11,4.41-2.65,5.08-4.97.08-.3.28-.83.24-1.14.36,2.34,2.04,4.08,3.98,5.32,2.16,1.37,4.65,2.34,7.13,2.97.64.16,1.28.32,1.92.48.85.19,1.7.41,2.56.63,8.45,2.25,18.28,5.43,27.19,11.92,8.44,6.14,18.61,7.57,27.47,8.4,2.67.26,5.54.49,8.44.49,4.67,0,8.54-.61,12.17-1.92,3.85-1.4,6.21-3.28,7.22-5.76.98-2.4.65-5.27-1.03-8.75-1.39-2.91-3.4-5.21-6-6.88-7.45-4.79-14.01-9.37-20.05-14.01-4.43-3.42-8.37-7.71-11.71-12.78l-.25-.38c-.7-1.07-1.44-2.15-2.24-3.18,3.66-3.47,4.91-8.82,2.72-14.01-.66-1.57-1.17-3.09-1.05-4.86,2.49-34.73,4.93-69.47,7.39-104.2,2.65-37.36,5.29-74.72,7.97-112.07,1.4-19.62,2.86-39.24,4.33-58.85.08-1.01.09-1.98-.32-2.66,1.79-1.48,2.24-3.27,1.84-6.32-.65-5.04-.75-9.88,1.92-14.65,2.87-5.12,5.16-10.59,6.59-16.33.98-3.95,2.03-7.91,2.42-12.12,15.31-3.2,30-7.89,42.94-17.49,7.26-5.39,11.26-12.37,11.97-21.04.8-9.76.13-19.52-2.42-29.07Z"/>
          <path class="st1" d="M125.33,465.3c-.26-.51-.52-1.02-.78-1.53l-.77-.37c.58.17,1.24,3.05,1.95,8.08l-.41-6.18s0,0,0,0Z"/>
          <path class="st1" d="M275.4,218.51c10.62,4.77,16.55,7.59,20.64,11.53,4.89,2.61,8.42,6.51,10.36,11.83.07.12.12.27.19.4.12.36.27.71.43,1.05.09.19.18.39.27.59.05.12.09.24.14.36.1.15.16.33.25.49.25.53.49,1.06.72,1.6.13.33.28.67.4,1.01.02.01.05.02.07.03,4.69,10.85,7.77,22.29,11.95,33.33,2.17,5.73,3.82,11.59,5.2,17.57,3.01,13.04,5.87,26.13,10.15,38.84,4.28,12.71,6.78,25.7,6.11,39.21-.16,3.27-.92,6.27-2.17,9.31-3.34,8.16-10.67,11.76-17.56,15.72-7.43,4.27-15.44,6.9-23.65,8.88-3.8,1.38-7.44,2.77-10.7,4.33l1.17-.31s-.74,5.49-1.46,8.67c-.26,1.15-1.89,6.73-3.87,13.41,2.74-5.6,5.58-11.47,5.86-21.14,37.91-8.43,67.13-19.73,51.47-69.03-10.58-32.53-17.57-66.72-28.75-96.7-5.02-24.13-20.99-20.6-39.26-32.85-5.81-4.33-13.81-10.85-21.04-17.48,7.14,7.37,15.21,14.87,23.07,19.37Z"/>
          <path class="st1" d="M52.51,250.94l-.17-.29-.1.28c.09,0,.18,0,.28.01Z"/>
          <path class="st1" d="M123.86,462.41l-.08.99.16-.85s-.05-.1-.07-.14Z"/>
          <path class="st1" d="M232.67,183.69c1.4.09,2.8.11,3.09,2.16-2.53.66-2.86,2.62-2.82,4.89.08,4.2.39,8.43-.24,12.6-2.52,16.88-5.99,33.53-12.08,49.53l-2.13.3c-.91-5.49-2.16-10.66-4.39-15.41-2.75-5.85-.49-11.11.3-17.26,2.9,2.96,5.44,5.41,7.37,8.43.93,1.46,2.09,2.6,3.85,1.48,1.59-1.02,1.29-2.66.36-3.89-5.11-6.77-10.21-13.61-18.87-16.32.08-.91.9-1.09,1.49-1.46,6.42-4,12.87-7.95,19.28-11.97,1.15-.72,2.25-1.57,3.18-2.54.97-1.01,1.1-2.29.06-3.4-.95-1.02-2.1-.87-3.14-.14-7.81,5.52-16.14,10.24-24.17,15.41-1.85,1.19-2.92,1.03-4.68-.09-8.07-5.12-16.36-9.88-24.19-15.39-1.06-.75-2.21-.76-3.12.27-.91,1.02-.82,2.21.02,3.16.82.93,1.81,1.77,2.86,2.43,6.49,4.08,13.03,8.09,19.54,12.14.67.42,1.62.61,1.61,1.62-8.44,2.55-13.3,9.26-18.41,15.62-1.07,1.33-1.99,3.11-.13,4.43,2.08,1.47,3.17-.25,4.23-1.78,1.96-2.82,4.24-5.34,7.14-7.87.44,2.69.48,4.97,1.22,6.99,1.1,3.02.46,5.69-.54,8.52-2,5.64-3.94,11.31-4.85,17.27-.1.65.07,1.55-1.01,1.73-.17-.24-.41-.47-.51-.75-7.23-20.27-12.93-40.86-12.97-62.62,0-2.53.31-5.12-2.8-6.08.59-2.2,2.24-1.89,3.65-2.07.63-.08,1.18-.27,1.59-.6-.02-.01-.04-.03-.07-.04-1.29-.8-2.5-1.67-3.66-2.56-5.92,4.08-10.27,11.03-15.94,17.49,3.83-3.8,7.37-7.89,10.54-12.33,2.21-.62,4.98,1.25,4.9,3.65-.6,15.87,1.34,31.74,5.98,46.94,11.71,30.73,14.68,97.61,21.15,130.34-.28,4.19,5.14,9.61,0,12.32-1.22,1.78-3.76,1.93-4.57,4.15.18,1.43.37,2.86.55,4.3,5.61,3.79,4.24,14.74,5.59,18.73.81,7.81,10.58,8.62,15.02,14.09,11.9.87,32.85,1.9,34.81-14.94,1.8-11.65,2.48-26.43-3.05-37.51.63-.95,1.28-1.89,1.92-2.84,11.66,2.17,24.82.94,32.11-9.35,6.46-3.66,24.08-4.78,24.9-12.79-1.06-29.59-10.92-59.16-11.38-88.48-.49-2.26-1.29-6.49-1.27-6.81.08-2.31-3.45-.53-6.27-.31-19.69.76-32.56,4.35-50.59,6.84-.29-.2-10.08.95-10.4.81,1.36-4.49,8.78-25.47,9.43-32.75,1.48-9.6,2.05-17.36,3.5-25.11l-.81-6.75c.84-.35,2.8-4.6,3.76-5.26-1.07-1.37-1.95-2.66-2.61-3.83l-2.23-.33c-1.06.81-2.14,1.57-3.24,2.29.52.45,1.29.65,2.16.71ZM185.87,257.43l5.65-26.58c.05-.23.06-.46.02-.7l-1.94-12.94c3.38-1.69,6.95-3.97,8.72-7.43,2.4-.87,2.89,1.13,3.97,2.5.9-.09,1.8-.38,2.7-.91.5,1.32.14,2.63,1.06,3.04,5.93,2.71,2.32,7.46,2.49,11.38.03.58-.32,1.18-.57,2.03-1.05-.17-2.09-.31-3.13-.41l-.69,3.26c-.05.25-.06.51,0,.76l.13.72c1.67.26,3.14.98,3.88,3,2.25,6.13,4.17,12.35,5.51,18.7l-5.23.73c.11,1.08-.69,2.07-1.87,2.28l-18.02,3.06c-1.6.27-3-1.02-2.68-2.49ZM244.36,376.84c.91,12.43,1.69,24.87-1.76,37.09-.21.02-.43.06-.66.13-5.58,1.87-11.4,2.74-17.17,3.44-5.94.72-12.14,1.22-17-3.72-.37-.37-.99-.47-1.49-.72-3.93-1.95-8.11-3.7-7.26-9.37.06-.43,0-1.06-.26-1.34-2.64-2.8-1.74-6.24-1.78-9.5-.02-1.97-.47-3.77-2.18-4.87-1.78-1.15-2.62-2.52-1.98-4.65.63-2.08,2.37-2.46,4.14-2.73,4.86-.73,9.64-2.07,14.62-1.87,1.29.05,2.6-.1,3.89-.28,1.35-.2,2.48-.87,3-2.21.57-1.46-.32-2.45-1.21-3.45-1.49-1.67-3.35-2.21-5.52-2.08-2.54.15-5.04-.01-7.18-1.62-1.11-.83-2.23-1.7-1.66-3.72,9.32-1.05,18.62-1.96,27.92.15,4.23.96,8.4,2.11,12.25,4.19-.28.69-.18,1.56.1,2.47.47,1.53,1.09,3.08,1.2,4.66ZM199.23,369.86c.21.32.44.64.71.94,1.31,1.47,2.93,2.52,4.57,4-1.48.3-2.97.61-4.45.91l-.83-5.85ZM287.54,248.73l13.6,96.21c-6.13,1.79-12.26,3.58-18.36,5.45-4.84,1.48-9.03,4.16-11.77,8.44-1.34,2.1-2.89,2.93-5.12,3.05-1.6.09-3.2.14-4.81.16-4.6.06-9.2.04-13.8.17-1.83.05-4.01.23-3.82,2.79,0,.03.01.05.01.08-5.49-2.6-11.31-4.29-17.31-4.79-7.47-.62-15.04-.64-22.52.66-2.16.38-4.18,1.18-4.97,3.07-.08.18-.13.37-.19.56l-11.45-81.05c.11-.49.03-.93-.19-1.33l-2.68-18.97,103.38-14.5Z"/>
          <path class="st1" d="M82.5,387.09s0,0,0,0c0,0,0,0,0,0-5.33-.16-9.36-2.15-11.06-3.16-1.02-.29-1.77-1.24-1.87-2.2-10.27-6.34-16.22-16.35-19.66-28.03,3.41,14.55,9.28,26.33,19.26,29.65,7.58,4.93,14.81,4.79,21.39,2.55-2.55.67-4.89,1.12-6.68,1.18-.47.01-.92.01-1.37,0Z"/>
          <path class="st1" d="M269.87,470.69c1.63-.58,3.24-1.21,4.83-1.91-.05.46-.07.93-.1,1.39-2.14,30.22-4.26,60.45-6.41,90.67-4.33,60.86-8.67,121.73-13.03,182.59-.17,2.37.12,4.55,1.11,6.74,2.34,5.18.52,9.35-4.85,11.14-.65.22-1.3.42-1.95.63-4.35,2.68-11.81,3.59-18.68,5.81-6.78,2.19-16.04,3.05-23.23,3.3.17,1.3,1.18,1.91,2.49,2,1.04.07,2.1.01,3.14.01,5.6-.16,10.94-2.16,16.53-2.32,8.07-.23,15.75-2.38,23.37-4.77.33-.1.63-.22.94-.35,4.21,6.32,9.55,13.49,17.22,19.1,4.28,3.13,8.72,6.16,13.02,9.11,1.98,1.33,3.95,2.68,5.9,4.04.83.58,1.44,1.12,1.87,1.68,2.49,3.3,3.37,5.49,2.85,7.07-.47,1.47-2.23,2.58-5.65,3.61-2.8.84-5.84,1.24-9.26,1.24s-7.21-.44-10.71-.86l-1.02-.13c-9.73-1.18-18.02-4.41-25.31-9.91-6.61-4.98-14.42-7.23-23.21-9.46-2.52-.64-5.06-1.36-7.53-2.11-3.26-1.01-5.09-3.42-5.16-6.79-.03-1.87-.02-3.72-.01-5.59.01-1.83.02-3.71-.02-5.57-4.38.14-7.92.05-9.53-.09-.29-.03-.75-.06-1.36-.11-.04,1.92-.03,3.87-.02,5.76.01,1.87.01,3.72-.02,5.59-.07,3.37-1.89,5.78-5.15,6.79-2.49.76-5.02,1.47-7.54,2.12-8.78,2.23-16.59,4.48-23.2,9.46-7.31,5.49-15.59,8.73-25.32,9.9l-1.01.12c-3.52.43-7.14.87-10.71.87s-6.46-.41-9.26-1.24c-3.44-1.03-5.18-2.14-5.65-3.61-.52-1.58.35-3.77,2.85-7.07.42-.57,1.03-1.12,1.87-1.69,1.96-1.36,3.93-2.7,5.9-4.05,4.3-2.93,8.74-5.96,13.02-9.09,7.71-5.64,13.08-12.89,17.31-19.23,3.77,1.78,7.9,2.47,11.91,3.48,8.57,2.17,17.52,1.81,26.15,3.76,1.92.43,3.97.33,5.96.33,1.39,0,2.5-.67,2.58-2.21h0c-8.46-.7-40.31-3.39-49.18-7.9.37.87.5,1.44.5,1.44,0,0-9.46,14.16-17.38,19.83-7.91,5.66-19.04,10.49-21.94,15.05-2.9,4.57-6.37,12.35,9.46,15.25,30.23,4.35,31.07-6.82,52.18-16.47,13.46-4.28,29.87-1.18,30.56-17.05h4.18l1.61,7.53c3.34,4.98,31.14,9.4,36.29,13.96,5.92,3.6,17.63,11.64,29.08,12.03,11.45.39,24.9-.9,25.8-5.34,6.37-16.9-25.47-16.44-41.43-46.71,7.17-2.44,3.13-9.1,2.57-15.18,0-4.76,18.59-281.28,18.59-281.28l-6.58,1.95c-.06.8-.12,1.72-.2,2.77Z"/>
          <path class="st1" d="M114.35,422.56c-1.88-12.14-1.34-24.45-1.13-36.71-.86,18.43-1.26,43.55,7.75,59.02,0-.79.02-1.58.03-2.38-2.51-6.53-5.7-12.94-6.64-19.93Z"/>
          <path class="st1" d="M123.98,461.05c.18-1.17.27-2.32.29-3.45l-.29,3.45Z"/>
          <path class="st1" d="M140.9,208.11c-2.98,1.83-6.67,4.37-10.56,7.03,3.66-2.18,7.21-4.53,10.62-7.07-.02.01-.04.03-.07.04Z"/>
          <path class="st1" d="M274.8,463.43l1.85,2.54c4.41-1.34,2.35-5.9,2.26-12.44-1.74,5.79-3.03,10.07-3.03,10.07l-1.07-.18Z"/>
          <path class="st1" d="M143.15,754.08s2.19-8.88,2.19-8.87c-1.94-3.03-13.12-227.95-19.61-273.73l18.27,273.68s-6.19,11.9,1.57,17.19c.29.2.63.39,1,.58-.34-.81-.89-1.88-1.76-3.06-1.8-2.45-1.67-5.79-1.67-5.79Z"/>
          <path class="st1" d="M206.97,770.22c-.06-1.68-.31-3.25-1.78-3.39-.08-.02-.16-.02-.25-.02-.21,0-.46.04-.72.09-.02-.5-.04-.99-.04-1.49,0-88.5,0-176.99,0-265.48,0-1.24-.24-2.52.43-4.02.84-.04,1.57-.05,2.29-.11,1.29-.12,2.21-.73,2.31-2.12.08-1.2-.56-2.11-1.69-2.36-5.12-1.13-10.26-2.21-15.41-3.2-1.24-.24-2.31.41-2.58,1.76-.27,1.32.4,2.27,1.62,2.71,1.08.39,2.22.61,3.34.89,5.44,1.35,4.81.22,4.81,6.05.02,88.71.02,177.41,0,266.12,0,.45-.02.9-.04,1.35-.45-.13-.84-.19-1.16-.19-.1,0-.2.01-.3.02-1.41.18-1.66,1.73-1.71,3.39,0,.2-.01.42-.01.62,0,.01,0,.02,0,.03.6.05,1.06.09,1.36.11,1.61.14,5.15.23,9.53.09,0-.06,0-.11,0-.17,0-.23,0-.44-.01-.67Z"/>
          <path class="st1" d="M209.93,768.38c-1.41.03-2.46.85-2.42,2.37,0,.1.02.2.03.29,7.19-.25,16.46-1.11,23.23-3.3,6.87-2.22,14.33-3.14,18.68-5.81-6.76,2.14-13.64,3.74-20.81,4.03-6.3.25-12.39,2.28-18.72,2.42Z"/>
          <path class="st1" d="M193.43,768.39c-6.75-.19-13.25-2.28-19.98-2.54-7.75-.3-15.12-2.36-22.39-4.85-3.87-1.33-6.35-5.68-4.66-9.02,2.32-4.58,1.71-9.18,1.51-11.65-2.3-32.24-4.45-62.25-6.58-92.26-2.19-30.95-4.35-61.91-6.55-92.87-2.01-28.33-4.04-56.66-6.08-84.99-.03-.43-.06-.87-.1-1.31,2.23.98,4.5,1.86,6.86,2.52,19.63,5.43,39.62,8.53,59.96,9.25,22,.78,43.58-2.45,64.96-7.27,3.21-.72,6.38-1.61,9.49-2.71.08-1.05.14-1.97.2-2.77l-20.28,6.01s-4.65.41-11.19.98c-17.88,2.76-35.8,3.19-40.22,3.41-.39.03-.71.05-.94.06-17.95,2.81-41.01-2.62-57.06-7.62-1.14-.17-1.78-.27-1.78-.27l-1.89-.91c-4.63-1.52-8.5-2.94-11.22-3.98-.05-.1-.1-.2-.15-.31,0,0,0,0,0,0l.41,6.18c6.49,45.78,17.66,270.7,19.61,273.73,0,0-2.19,8.87-2.19,8.87,0,0-.13,3.34,1.67,5.79.87,1.17,1.41,2.25,1.76,3.06,8.87,4.51,40.72,7.2,49.18,7.9.08-1.54-.93-2.4-2.33-2.44Z"/>
          <path class="st1" d="M188.55,259.92l18.02-3.06c1.18-.2,1.97-1.2,1.87-2.28l-19.72,2.77c1.44-7.46,3.36-14.8,6.03-21.95,1.16-3.11,3.85-3.35,6.48-3.38,1.01,0,2.07-.02,3.06.13l-.13-.72c-.05-.25-.04-.51,0-.76l.69-3.26c-3.23-.31-6.43-.24-9.64.47-1.64-3.58-1.09-7.23-1.59-10.72-.11-.75.57-1.13,1.15-1.32,2.03-.64,2.96-2.14,3.2-4.34,1.49.6,2.91.92,4.32.77-1.07-1.37-1.57-3.37-3.97-2.5-1.77,3.46-5.34,5.74-8.72,7.43l1.94,12.94c.03.23.03.47-.02.7l-5.65,26.58c-.31,1.47,1.08,2.76,2.68,2.49Z"/>
          <path class="st1" d="M45.87,279.14l4.12-6.5-1.29-18.4,3.47-3.15.06-.16c-1.26.01-2.36.74-3.54,2.78-3.02,3.84,3.73,18.2-.81,21.49-2.77,3.17-2.49,2.73-2.77,9.92.6,20.18-1.53,47.18,4.78,68.6-6.57-28.03-3.99-66.38-4.03-74.57Z"/>
          <path class="st1" d="M112.32,376.06c.58.63.97,1.49.97,2.6,0,2.4-.03,4.8-.07,7.2.21-4.42.43-8.46.57-11.88l-1.47,2.08Z"/>
          <path class="st1" d="M252.33,199.15c-5.04-5.2-9.63-10.34-13.35-14.31-.09-.11-.22-.09-.38.02,3.28,4.23,8.28,9.29,13.73,14.29Z"/>
          <path class="st1" d="M122.88,447.78s-.05,0-.07,0c.93,3.18,1.52,6.43,1.46,9.82l.61-7.32c-.71-.78-1.37-1.63-2-2.49Z"/>
          <path class="st1" d="M152.79,197.93c-3.69,3.66-7.65,7.04-11.83,10.14,4.77-2.77,8.53-6.38,11.83-10.14Z"/>
          <path class="st1" d="M123.77,462.23c.03.06.06.12.09.18l.11-1.36c-.06.39-.12.79-.2,1.18Z"/>
          <path class="st1" d="M101.59,231.12c-.47.43-.94.86-1.39,1.31.43-.31.87-.62,1.32-.93l.07-.37Z"/>
          <path class="st1" d="M109.44,227.41c5.47-1.81,13.55-7.25,20.9-12.27-3.79,2.26-7.69,4.35-11.68,6.26-6.66,1.96-12.26,5.37-17.08,9.72l-.07.37c2.36-1.61,5.08-3.14,7.92-4.08Z"/>
          <polygon class="st1" points="82.5 387.09 82.49 387.09 82.5 387.09 82.5 387.09"/>
          <path class="st1" d="M69.56,381.74c-.06-.6.12-1.19.66-1.63-12.69-8.77-18.42-21.67-20.08-36.69-2.27-20.51-1.45-41.15-1.83-61.73-.03-1.56.5-2.85,1.39-4.08,2.17-2.98,3.4-6.2,2.89-10-.48-3.53-.78-7.09-1.06-10.64-.15-1.86.34-3.42,2.15-4.1l-1.17-1.93c-.09,0-.19-.01-.28-.01l-.06.16-3.47,3.15,1.29,18.4-4.12,6.5c.04,8.19-2.54,46.54,4.03,74.57,3.44,11.67,9.39,21.68,19.66,28.03Z"/>
          <path class="st1" d="M92.87,252.62c-.22,4.64.35,9.23.75,13.83.17,1.96.74,3.76,3.02,3.61,2.44-.17,2.61-2.16,2.19-4.04-1.07-4.66-1.18-9.37-1.13-14.1.02-1.58.08-3.25-.98-4.53-.27-.32-.46-.64-.61-.95l-3.54,4.2c.36.56.35,1.26.31,1.99Z"/>
          <path class="st1" d="M183.72,476.99c-11.71-1.52-27.91-3.91-37.38-5.32,10.76,2.33,23.94,4.31,37.38,5.32Z"/>
          <path class="st1" d="M124.55,463.77c.26.51.51,1.02.78,1.53,2.41,1.18,5.81,2.41,9.95,3.61l-10.73-5.14Z"/>
          <path class="st1" d="M125.51,453.97l1.59-.21c.02-2.64-.32-5.27-1.51-7.9-.18,1.45-1.52,2.1-2.72,1.93.63.87,1.29,1.71,2,2.49l-.61,7.32c-.02,1.13-.11,2.28-.29,3.45l-.11,1.36s.05.1.07.14l1.58-8.59Z"/>
          <path class="st1" d="M234.84,190.12l.81,6.75c-1.44,7.75-2.02,15.52-3.5,25.11-.64,7.28-8.07,28.26-9.43,32.75.33.14,10.11-1.01,10.4-.81,18.03-2.49,30.9-6.08,50.59-6.84,2.82-.22,6.35-2,6.27.31-.01.32.78,4.55,1.27,6.81.46,29.32,10.32,58.89,11.38,88.48-.83,8.01-18.45,9.13-24.9,12.79-7.29,10.28-20.46,11.52-32.11,9.35-.65.94-1.29,1.89-1.92,2.84,5.53,11.08,4.85,25.86,3.05,37.51-1.96,16.84-22.91,15.82-34.81,14.94-4.44-5.47-14.21-6.28-15.02-14.09-1.35-3.99.02-14.93-5.59-18.73-.18-1.43-.37-2.86-.55-4.3.81-2.22,3.35-2.37,4.57-4.15,5.15-2.71-.27-8.13,0-12.32-6.47-32.73-9.44-99.61-21.15-130.34-4.64-15.2-6.58-31.07-5.98-46.94.08-2.4-2.69-4.27-4.9-3.65-3.17,4.44-6.72,8.54-10.54,12.33-3.31,3.77-7.06,7.37-11.83,10.14-3.41,2.53-6.96,4.88-10.62,7.07-7.35,5.03-15.43,10.47-20.9,12.27-2.85.94-5.56,2.47-7.92,4.08l-.6,3.18c2.83-3.02,6.5-5.12,10.69-6.63,6.34-2.29,12.41-5.14,18.16-8.68,3.43-2.11,6.88-4.17,10.32-6.26.33-1.33,1.42-2,2.37-2.82,7.78-6.72,16.12-12.88,21.75-21.75.13-.21.49-.27.8-.43-.37,22.18,4.83,43.22,11.91,63.86.82,2.4,1.68,4.79,2.53,7.18-.11.1-.21.2-.3.32-.41.55-.59,1.24-.5,1.93l2.23,15.76c-8.87-7.43-16.77-15.92-25.55-23.45-.7-.6-1.48-1.2-1.75-2.36,2.35-2.6,5.52-4.31,8.26-6.54,1.26-1.03,2.5-2.08,2-3.92-.47-1.77-1.95-2.39-3.57-2.66-2.38-.4-4.77-.75-7.16-1.04-6.66-.82-13.15-2.4-19.87-3.99,1.2-2.99,2.81-5.42,4.4-7.86,1.72-2.63,3.68-5.13,5.23-7.86,1.63-2.86.46-4.55-2.72-4.34-5.25,6.5-8.93,14.06-13.95,20.72-1.34,1.78-.14,3.76,2.21,4.02,1.98.22,3.96.2,5.93.63,6.66,1.45,13.27,3.18,20.1,3.74.49.04,1.08.02,1.13,1.02-1.69,1.31-3.55,2.66-5.31,4.14-2.63,2.21-3.09,5.42-.95,7.32,10.59,9.4,20.29,19.8,31.44,28.58.36.28.74.65,1.12,1l13.05,92.3c-.62.13-1.23.29-1.82.54-4.82,2.04-6.97,9.75-3.18,12.44,2.85,2.03,2.92,4.35,2.7,7.23-.38,4.98,2.65,9.21,3.3,14,.16,1.19,1.61,1.98,2.71,2.7,2.16,1.43,4.66,2.55,6.54,4.12,4.44,3.74,9.49,4.34,14.84,4.46,7.43.16,14.5-2.05,21.72-3.29.24-.04.48-.12.72-.22.62.93,1.95,1.29,4.08,1.22,5.56-.19,11.12-.31,16.69-.48,1.49-.05,3.08.19,4.37-.72,1.13-.8,2.06-.52,3.26-.21,1.45.38,2.91,1.01,4.39,1.35.1-.31.21-.61.34-.9.34-.73.98-1.14,1.87-.94.2.04.37.11.52.19l.19-.81,10.04-2.7c3.26-1.56,6.9-2.94,10.7-4.33-3.64.88-7.33,1.63-11.01,2.34-3.4.66-6.79,1.72-10.31,1.67,1.89-11.27,1.84-22.26.23-33.23-.39-2.63-1.35-5.19-2.2-7.72-.61-1.79-1.23-4.19-3.8-3.35-2.68.88-1.57,3.1-.9,4.88,2.13,5.7,2.98,11.59,3.04,17.66.06,6.95-.1,13.89-.88,20.39-2.94,3.1-6.41,1.3-9.65,1.39-5.09.13-10.19.03-15.27.03-.07-.27-.2-.5-.16-.68,2.68-11.21,2.11-22.59,1.72-33.96-.11-3.12-.7-6.19-1.77-9.13-.13-.37-.3-.71-.5-1.01.03-.05.06-.08.08-.13.52-.98.27-1.68-.3-2.24.06,0,.12,0,.17,0,2.78-.06,5.56-.02,8.34-.02v-.12c2.89,0,5.8.24,8.66-.06,4.38-.46,8.93-.76,11.08-5.84.54-1.27,1.99-2.21,3.17-3.12,3.4-2.61,7.5-3.54,11.51-4.69,5.75-1.64,11.48-3.34,17.2-5.09,1.54-.47,2.79-1.49,2.19-3.33-.56-1.73-1.95-1.79-3.38-1.44l-13.86-98.04c-.2-1.42-1.51-2.4-2.93-2.21l-35.81,5.02c-.4-.46-.86-.91-1.43-1.37-1.64-1.32-3.64-2.29-5.1-4.6,9.63-.28,18.25-3.88,27.41-4.41,2.66-.15,3.78-2.39,2.13-4.44-4.05-5.01-6.65-10.96-10.63-16-.81-1.02-1.59-2.1-1.93-3.72,9.12,5.85,18.15,11.09,28.1,14.62,1.39.49,2.69,1.07,3.91,1.72-4.09-3.94-10.02-6.76-20.64-11.53-7.86-4.5-15.92-12-23.07-19.37-5.45-5-10.45-10.06-13.73-14.29-.96.66-2.93,4.92-3.76,5.26ZM262.59,212.21c-3.48,1.72-3.89,2.86-2.16,5.78.8,1.35,1.79,2.59,2.68,3.9,2.41,3.54,4.85,7.06,6.75,11.28-1.41.35-2.6.65-3.8.94-7.56,1.83-15.25,2.96-22.95,4.02-1.7.23-3.38.76-3.87,2.72-.5,1.99.86,3.06,2.22,4.14,1.81,1.45,3.79,2.68,5.63,4.17l-20.94,2.94c2.49-7.16,4.74-14.4,6.41-21.84,2.97-13.23,6.12-26.44,5.38-40.17-.03-.55-.3-1.3.87-1.69,5.89,9.78,15.49,16.05,23.78,23.82Z"/>
          <path class="st1" d="M207.3,477.65c6.13-.16,12.23-.75,18.09-1.6-6.72.58-13.61,1.17-18.93,1.61.28,0,.56,0,.84-.02Z"/>
          <path class="st1" d="M89.5,246.14c.35,1.55.08,3.26-6.3,4.95-8.73,2.17-8.02,5.7-17.32,3.93-6.94-.54-10.57-3.9-13.36-4.09l1.17,1.93c.16-.06.31-.13.5-.17,1.92,2.39,4.86,3.71,8.61,4.07,7.83.74,15.25-.83,22.44-3.8,1.26-.52,2.65-1.01,3.4-2.18.77-1.19,1.5-1.46,2.83-.96.54.2.89.48,1.1.82l3.54-4.2c-.72-1.54-.14-3.05.45-4.64,1.04-2.82,2.53-5.15,4.36-7.11l.6-3.18c-.46.31-.9.62-1.32.93-4.1,3.99-7.61,8.67-10.69,13.71Z"/>
          <path class="st1" d="M114.35,422.56c.94,7,4.13,13.41,6.64,19.93.01-1.23.03-2.46.04-3.68l-2.06-3.08-4.82-22.72,1.08-41.09-1.45,2.06c-.13,3.42-.36,7.46-.57,11.88-.21,12.26-.74,24.56,1.13,36.71Z"/>
          <path class="st1" d="M107.65,266.76c-.97-4.19-2.01-8.36-3.12-12.52-.51-1.92,1.27-3.1,2.77-2.85-.4-.43-1.04-.68-2.04-.63-3,.15-2.16,3.08-2.18,5.06-.15,13.48,1.97,26.74,3.9,40.01,0-.13,0-.25.01-.38.07-1.78,1.73-2.5,3.06-2.17l-.37-14.65c-.03-.22-.05-.44-.08-.66l-1.95-11.21Z"/>
          <path class="st1" d="M207.3,477.65c-.28,0-.56,0-.84.02-3.61.3-6.49.53-8.09.65,4.42-.22,22.34-.64,40.22-3.41-3.92.34-8.52.74-13.2,1.14-5.86.85-11.96,1.44-18.09,1.6Z"/>
          <path class="st1" d="M183.72,476.99c-13.44-1.02-26.62-3-37.38-5.32-2.55-.38-4.61-.69-5.96-.9,16.05,5,39.1,10.43,57.06,7.62-1.47.09-6.8-.5-13.71-1.4Z"/>
          <path class="st1" d="M125.33,465.3c.05.1.1.2.15.31,2.72,1.04,6.58,2.46,11.22,3.98l-1.42-.68c-4.14-1.2-7.54-2.43-9.95-3.61Z"/>
          <path class="st1" d="M233.36,178.95c-.84.58-1.7,1.03-2.59,1.3l2.99.44c.66-.51,1.3-1.03,1.94-1.58-.73-.15-1.51-.19-2.33-.16Z"/>
          <path class="st1" d="M170.81,179.16s-.07-.05-.1-.07c-1.25-.15-2.49-.24-3.64.03.53.45,1.1.89,1.67,1.32.67-.46,1.36-.89,2.08-1.28Z"/>
          <path class="st1" d="M233.36,178.95c-.16,0-.32,0-.48.01-1.45.09-2.86.35-3.02,2.09-.08.91.19,1.52.65,1.92,1.1-.72,2.19-1.47,3.24-2.29l-2.99-.44c.89-.27,1.75-.72,2.59-1.3Z"/>
          <path class="st1" d="M172.46,183.04c.42-.34.69-.83.77-1.52.13-1.22-.52-2.16-1.67-2.31-.29-.04-.57-.08-.86-.11.03.02.07.05.1.07-.72.38-1.41.81-2.08,1.28,1.17.9,2.37,1.76,3.66,2.56.02.01.04.03.07.04Z"/>
          <path class="st1" d="M109.37,374.83c-1.23.86-2.52,1.8-3.88,2.76-.02.09-.06.17-.08.26-1.54,1.15-3.24,2.22-5.04,3.2-3.06,1.93-6.35,3.7-9.82,4.88,5.79-1.51,12.63-4.12,16.56-5.7.61-.43,1.22-.87,1.83-1.32.62-.46.95-1.45,2.19-1.16h0s1.19-1.68,1.19-1.68c-.75-.81-1.84-1.22-2.95-1.23Z"/>
          <path class="st1" d="M83.87,387.09c1.79-.06,4.13-.51,6.68-1.18,3.47-1.18,6.76-2.95,9.82-4.88-5.72,3.1-12.42,5.25-17.87,6.06.45.01.91.02,1.37,0Z"/>
          <path class="st1" d="M105.49,377.58c1.36-.96,2.65-1.89,3.88-2.76-1.7-.02-3.4.9-3.88,2.76Z"/>
          <path class="st1" d="M71.44,383.94c1.7,1.01,5.72,3,11.06,3.16-3.39-.85-6.47-1.97-9.27-3.34-.04.02-.07.04-.11.05-.59.27-1.16.28-1.67.13Z"/>
          <path class="st1" d="M105.42,377.84c.02-.09.05-.17.08-.26-1.62,1.15-3.33,2.33-5.12,3.45,1.8-.98,3.51-2.04,5.04-3.2Z"/>
          <path class="st1" d="M113.86,371.91c-1.37.77-2.87,1.78-4.48,2.91,1.11.01,2.2.42,2.95,1.23l1.47-2.08c.03-.71.05-1.4.07-2.06Z"/>
          <path class="st1" d="M113.79,373.97l1.45-2.06-1.08,41.09,4.82,22.72,2.06,3.08c0-.83.02-1.65.03-2.48-3.86-9.4-5.93-19.29-5.82-29.83.23-21,1.97-41.97.99-62.99-.75-16.17-2.22-32.28-4.34-48.29-.73-5.54-1.53-11.06-2.22-16.59l.37,14.65c.91.23,1.66.94,1.61,2.17-.31,8.52-.63,17.05-1.59,25.52-.07.62-.15,1.25-.22,1.87.33,6.69,1.33,13.37,1.45,20.1.11,5.98-.32,11.96.34,17.95.3,2.75,1.12,6.33-.62,8.27-2.74,3.05-5.03,6.67-8.89,8.76-4.08,2.2-8.22,4.37-12.59,5.73-4.94,1.53-9.87,1.35-14.55-.74-.58.29-1.17.58-1.77.85,2.8,1.36,5.88,2.49,9.27,3.34,0,0,0,0,0,0,5.46-.81,12.16-2.96,17.87-6.06,1.79-1.13,3.5-2.3,5.12-3.45.48-1.86,2.18-2.77,3.88-2.76,1.61-1.13,3.11-2.14,4.48-2.91-.02.66-.04,1.35-.07,2.06Z"/>
          <path class="st1" d="M109.6,277.98c-.21-1.73-.41-3.47-.6-5.2-.44-2.01-.89-4.01-1.35-6.01l1.95,11.21Z"/>
          <path class="st1" d="M71.36,382.79c-.61-.34-1.21-.69-1.8-1.05.1.96.86,1.91,1.87,2.2-.58-.34-.9-.57-.9-.57,0,0,.3-.21.82-.58Z"/>
          <path class="st1" d="M72.8,381.78c-.17-.1-.33-.19-.5-.29-.72-.44-1.4-.91-2.08-1.38-.54.44-.72,1.03-.66,1.63.59.36,1.18.71,1.8,1.05.37-.26.86-.6,1.44-1.01Z"/>
          <path class="st1" d="M107,295.45c0,.13,0,.25-.01.38.89,6.11,1.73,12.23,2.29,18.38.63-4.9,1.09-8.6,1.09-8.6l-.31-12.32c-1.32-.33-2.99.39-3.06,2.17Z"/>
          <path class="st1" d="M70.54,383.37s.32.23.9.57c.51.15,1.08.14,1.67-.13.04-.02.07-.04.11-.05-.64-.31-1.25-.63-1.86-.97-.52.36-.82.58-.82.58Z"/>
          <path class="st1" d="M109.27,314.2c.24,2.66.43,5.33.55,8.01,0,.21.02.42.03.63.08-.62.15-1.25.22-1.87.95-8.47,1.27-17,1.59-25.52.05-1.22-.7-1.94-1.61-2.17l.31,12.32s-.46,3.7-1.09,8.6Z"/>
          <path class="st1" d="M71.36,382.79c.61.33,1.23.66,1.86.97.6-.27,1.18-.55,1.77-.85-.74-.33-1.47-.7-2.19-1.13-.58.41-1.07.75-1.44,1.01Z"/>
          <path class="st1" d="M120.97,444.87c0,.23,0,.46,0,.69-.02,1.3.85,2.04,1.85,2.21-.01-.05-.03-.1-.04-.15-.63-.88-1.24-1.79-1.8-2.75Z"/>
          <path class="st1" d="M121,442.49c0,.79-.02,1.58-.03,2.38.56.96,1.16,1.87,1.8,2.75-.51-1.73-1.12-3.43-1.77-5.13Z"/>
          <path class="st1" d="M122.76,447.62c.01.05.03.1.04.15.02,0,.05,0,.07,0-.04-.05-.08-.11-.11-.16Z"/>
          <path class="st1" d="M104.53,254.24c1.11,4.16,2.15,8.33,3.12,12.52l-.41-2.37c.49,1.7.97,3.41,1.44,5.12-.42-4.57-.71-9.15-.75-13.76-.01-1.41.31-3.37-.63-4.37-1.5-.25-3.28.93-2.77,2.85Z"/>
          <path class="st1" d="M121.04,438.81c-.01,1.23-.03,2.45-.04,3.68.65,1.7,1.26,3.4,1.77,5.13.04.05.08.11.11.16,1.2.17,2.53-.47,2.72-1.93-.13-.29-.27-.58-.42-.87l-4.13-6.18Z"/>
          <path class="st1" d="M107.65,266.76c.47,2,.92,4,1.35,6.01-.12-1.09-.23-2.17-.33-3.26-.47-1.71-.95-3.42-1.44-5.12l.41,2.37Z"/>
          <path class="st1" d="M125.09,444.83c-1.5-2.79-2.85-5.62-4.03-8.5,0,.83-.02,1.65-.03,2.48l4.13,6.18c-.03-.05-.05-.11-.08-.16Z"/>
          <path class="st1" d="M274.71,463.41c-.14.08-.29.15-.45.22-.79.34-1.58.67-2.37.99,0,.02-.02.04-.03.05-.52.34-1.06.67-1.62.99-.04.56-.09,1.32-.16,2.25l6.58-1.95-1.85-2.54-.09-.02Z"/>
          <path class="st1" d="M123.94,462.56l-.16.85.77.37c-.21-.4-.42-.81-.62-1.21Z"/>
          <path class="st1" d="M138.59,470.49s.64.1,1.78.27c-1.27-.4-2.5-.79-3.67-1.18l1.89.91Z"/>
          <path class="st1" d="M249.78,473.94l20.28-6.01c.07-.93.12-1.69.16-2.25-7.88,4.53-19.75,7.4-31.64,9.24,6.54-.57,11.19-.98,11.19-.98Z"/>
          <path class="st1" d="M198.37,478.32c-.47.02-.79.04-.94.06.23-.01.55-.04.94-.06Z"/>
          <path class="st1" d="M146.34,471.66c9.47,1.42,25.68,3.81,37.38,5.32,7.63.58,15.34.84,22.74.68,5.32-.44,12.21-1.03,18.93-1.61,11.36-1.64,21.81-4.24,29.77-6.57-3.85.78-7.73,1.45-11.58,2.25-33.7,6.97-67.08,4.58-100.29-3.21-4.59-1.08-9.1-2.5-13.47-4.38-2.51-1.09-3.36-2.36-3.06-5.23.18-1.73.34-3.44.35-5.16l-1.59.21-1.58,8.59c.2.41.41.81.62,1.21l10.73,5.14c3.26.95,6.99,1.88,11.06,2.76Z"/>
          <path class="st1" d="M270.23,465.67c.56-.32,1.11-.65,1.62-.99,0-.02.02-.04.03-.05-.54.22-1.08.44-1.63.65,0,.12-.02.25-.03.39Z"/>
          <path class="st1" d="M135.28,468.91l1.42.68c1.18.39,2.4.78,3.67,1.18,1.35.21,3.42.52,5.96.9-4.07-.88-7.8-1.81-11.06-2.76Z"/>
          <path class="st1" d="M265.72,466.89c-3.48,1.08-7.01,1.88-10.56,2.6-7.96,2.33-18.41,4.93-29.77,6.57,4.68-.4,9.28-.8,13.2-1.14,11.89-1.84,23.76-4.71,31.64-9.24.01-.14.02-.27.03-.39-1.49.58-3,1.13-4.53,1.61Z"/>
          <path class="st1" d="M183.72,476.99c6.9.89,12.24,1.49,13.71,1.4.15-.02.47-.04.94-.06,1.6-.12,4.48-.35,8.09-.65-7.4.16-15.11-.1-22.74-.68Z"/>
          <path class="st1" d="M278.91,453.54c1.56-5.18,3.47-11.57,5.13-17.18-1.07,2.19-2.13,4.34-3.02,6.65-1.76,3.87-2.16,7.42-2.12,10.53Z"/>
          <path class="st1" d="M289.37,414.27l-1.17.31c-1.8.86-3.49,1.77-5.02,2.76-.02.43-.05.86-.09,1.28,1.31-.28,2.62-.53,3.94-.77.05,0,.09-.02.14-.03-1.34,8.5-3.65,16.73-7.95,24.23-3.29,5.74-3.85,11.63-2.88,17.9.26,1.66-.24,2.69-1.57,3.42l.03.04,1.07.18s1.29-4.28,3.03-10.07c-.04-3.11.36-6.66,2.12-10.53.88-2.31,1.94-4.46,3.02-6.65,1.98-6.68,3.61-12.26,3.87-13.41.72-3.19,1.46-8.67,1.46-8.67Z"/>
          <path class="st1" d="M278.83,419.72s0,.02,0,.03c.03,0,.07-.02.1-.03,1.38-.44,2.77-.78,4.17-1.08.04-.43.07-.85.09-1.28,1.52-.99,3.21-1.9,5.02-2.76l-10.04,2.7-.19.81c.62.32.9.9.86,1.62Z"/>
          <path class="st1" d="M274.8,463.43l-.03-.04s-.04.02-.06.03l.09.02Z"/>
          <path class="st2" d="M204.04,467.07s0-.05,0-.07c.02-7.13,0-14.26,0-21.38h.03c0-7.13,0-14.26,0-21.38,0-.73.02-1.48-.1-2.19-.21-1.29-.97-2.11-2.32-2.11-1.22,0-1.93.77-2.16,1.9-.17.81-.24,1.66-.24,2.5-.02,14.23-.04,28.45-.02,42.68,1.53.04,3.13.06,4.81.06Z"/>
          <path class="st2" d="M201.54,470.87c2.51.06,2.5-2,2.5-3.8-1.68,0-3.27-.02-4.81-.06v.08c0,1.69,0,3.72,2.3,3.78Z"/>
          <path class="st2" d="M268.55,449.58c-.19.87-.41,1.88.24,2.5.44-.1.88-.2,1.33-.29l7.41-31.81c-.77.05-1.54-.05-2.3-.23-.08.25-.15.5-.21.76-2.17,9.69-4.33,19.38-6.47,29.08Z"/>
          <path class="st2" d="M271.72,451.61c.17-.4.28-.86.38-1.31,1.09-4.84,2.16-9.69,3.23-14.54h.03c1.08-4.84,2.15-9.69,3.22-14.54.11-.49.23-.98.26-1.48-.44.13-.87.2-1.3.23l-7.41,31.81c.26-.05.52-.11.79-.16.28-.05.56-.06.81-.02Z"/>
          <path class="st2" d="M269.94,452.56l.18-.78c-.44.09-.89.19-1.33.29.2.19.48.35.88.45.1.02.18.02.27.04Z"/>
          <path class="st2" d="M271.72,451.61c-.26-.03-.53-.03-.81.02-.26.05-.52.1-.79.16l-.18.78c1,.15,1.49-.3,1.78-.96Z"/>
          <path class="st2" d="M277.53,419.97l.44-1.88c-.15-.08-.32-.15-.52-.19-.9-.2-1.53.21-1.87.94-.14.29-.25.59-.34.9.76.18,1.53.28,2.3.23Z"/>
          <path class="st2" d="M278.83,419.75s0-.02,0-.03c.03-.73-.24-1.31-.86-1.62l-.44,1.88c.43-.03.86-.1,1.3-.23Z"/>
          <g>
            <path class="st6" d="M195.87,71c.17,1.56.31,3.13.42,4.7s.17,3.14.2,4.71c.02.89.02,1.78.02,2.67,0,.32.14.66.37.89.22.22.58.38.89.37.32-.01.66-.12.89-.37.23-.25.37-.55.37-.89,0-1.57-.02-3.15-.08-4.72-.06-1.57-.16-3.14-.29-4.71-.08-.89-.16-1.77-.26-2.66,0-.17-.03-.33-.11-.48-.05-.16-.14-.29-.26-.4-.22-.22-.58-.38-.89-.37-.32.01-.66.12-.89.37-.21.23-.4.56-.37.89h0Z"/>
            <path class="st3" d="M204.94,70.72c.17,1.56.31,3.13.42,4.7s.17,3.14.2,4.71c.02.89.02,1.78.02,2.67,0,.32.14.66.37.89s.58.38.89.37c.32-.01.66-.12.89-.37.23-.25.37-.55.37-.89,0-1.57-.02-3.15-.08-4.72-.06-1.57-.16-3.14-.29-4.71-.08-.89-.16-1.77-.26-2.66,0-.17-.03-.33-.11-.48-.05-.16-.14-.29-.26-.4-.22-.22-.58-.38-.89-.37-.32.01-.66.12-.89.37-.21.23-.4.56-.37.89h0Z"/>
          </g>
          <rect class="st5" x="136.28" y="279.54" width="31.3" height="31.3"/>
          <g>
            <path class="st6" d="M143.36,286.56c.23,2.1.42,4.2.56,6.31s.23,4.21.27,6.32c.02,1.19.03,2.39.02,3.58,0,.43.19.89.49,1.19.29.29.77.51,1.19.49.44-.02.89-.16,1.19-.49s.49-.73.49-1.19c.01-2.11-.02-4.22-.11-6.33s-.22-4.22-.4-6.32c-.1-1.19-.22-2.38-.35-3.57,0-.23-.04-.45-.15-.65-.07-.21-.18-.39-.35-.54-.29-.29-.77-.51-1.19-.49-.44.02-.89.16-1.19.49-.28.31-.54.76-.49,1.19h0Z"/>
            <path class="st3" d="M155.54,286.18c.23,2.1.42,4.2.56,6.31s.23,4.21.27,6.32c.02,1.19.03,2.39.02,3.58,0,.43.19.89.49,1.19s.77.51,1.19.49c.44-.02.89-.16,1.19-.49s.49-.73.49-1.19c.01-2.11-.02-4.22-.11-6.33s-.22-4.22-.4-6.32c-.1-1.19-.22-2.38-.35-3.57,0-.23-.04-.45-.15-.65-.07-.21-.18-.39-.35-.54-.29-.29-.77-.51-1.19-.49-.44.02-.89.16-1.19.49-.28.31-.54.76-.49,1.19h0Z"/>
          </g>
        </g>
      </g>
      <g>
        <path class="st7" d="M59.78,254.54c.82.06,1.65.12,2.47.16,2.89.14,5.8.08,8.69-.17,3.77-.33,7.43-1.04,11.03-2.02.06-.14.14-.25.21-.38l-8.12,1.53-14.29.88Z"/>
        <path class="st7" d="M89.87,220.39c.25.58.55.91.87.98.42.09.94-.31,1.4-1.07.96-1.61,1.59-4.92-.08-6.93-2.24-1.2-3.73-1.87-4.55-2.05-.38-.08-.56-.04-.61.02-.22.28.41,1.58.96,2.72.91,1.88,2.04,4.21,2.01,6.33Z"/>
        <path class="st7" d="M83.75,250.27c1.3-1.28,2.78-2.73,3.72-6.61l.12-.59c2.44-12.07,3.66-18.13,2.89-18.29-.36-.07-1.41.9-2.53,1.93-1.95,1.8-4.87,4.49-8.72,6.33,1.68,2.89.87,11.91-1.48,15.61-1.09,1.71-2.22,1.88-2.98,1.72-.31-.07-.63-.2-.95-.4l-.07-.05-.03-.08c-1.17-2.94-.27-5.51.86-8.75l.33-.92c.2-3.35-.87-6.33-1.81-8.95-.98-2.74-1.76-4.9-.69-6.47.99-1.45,3.42-2.16,7.88-2.31h.11c.63.14,1.07.77,1.06,1.51-.01.84-.64,1.83-2.32,2.12-3.27,1.11-3.27,1.78-3.27,1.79,0,.06.14.17.48.25,1.5.31,5.21-.43,7.27-3.03,1.8-2.28,1.83-5.46.09-9.2-.55-.24-.75-.62-.91-.93-.15-.29-.23-.43-.48-.48-.57-.12-1.87.28-4.04,1.23-1.95,1.5-8.9,4.06-11.15,3.59-.58-.12-.77-.42-.83-.65-.12-.46.04-1.33,2.76-3.61,4.28-2.53,7.3-3.59,9.1-4.22,1.25-.44,2-.7,2.14-1.08.13-.36-.21-1.04-.9-2.2-.35-.92-.87-1.44-1.59-1.59-2-.42-5.32,2.05-8.24,4.22-2.86,2.13-5.34,3.96-6.9,3.64-.12-.02-.23-.06-.37-.13-.81-.54-1.21-1.19-1.19-1.92.08-2.41,4.93-5.17,8.82-7.39,1.88-1.07,4.23-2.41,4.24-2.82l.2-.15s0,0,0,0l-.27.08c-.51-.6-1.1-.96-1.79-1.1-2.45-.51-5.71,1.85-8.86,4.14-2.4,1.74-4.67,3.39-6.54,3.74l-.08.02-.08-.03c-.82-.37-1.27-.89-1.32-1.54-.19-2.29,4.7-5.54,8.27-7.92,1.22-.81,2.29-1.53,2.7-1.92-.19-1.51-.72-2.36-1.57-2.54-5.34-1.11-21.95,22.02-23.59,25.74,4.35,8.45,8.12,14.53,11.16,19.41,3.86,6.22,6.5,10.49,7.37,15.06l14.29-.88,8.12-1.53c.42-.71.96-1.27,1.56-1.86Z"/>
        <path class="st8" d="M52.42,239.47c-3.04-4.89-6.81-10.96-11.16-19.41,1.64-3.72,18.25-26.86,23.59-25.74.85.18,1.38,1.03,1.57,2.54-.41.39-1.48,1.1-2.7,1.92-3.57,2.38-8.45,5.63-8.27,7.92.05.65.5,1.17,1.32,1.54l.08.03.08-.02c1.87-.36,4.14-2,6.54-3.74,3.15-2.29,6.41-4.65,8.86-4.14.69.14,1.27.5,1.79,1.1l.27-.08s0,0,0,0l-.2.15c-.02.42-2.36,1.75-4.24,2.82-3.89,2.22-8.74,4.98-8.82,7.39-.03.73.37,1.38,1.19,1.92.14.07.25.11.37.13,1.56.33,4.04-1.51,6.9-3.64,2.93-2.17,6.24-4.64,8.24-4.22.72.15,1.24.67,1.59,1.59.69,1.16,1.03,1.84.9,2.2-.14.38-.89.65-2.14,1.08-1.8.63-4.82,1.69-9.1,4.22-2.72,2.28-2.88,3.15-2.76,3.61.06.23.25.53.83.65,2.25.47,9.2-2.09,11.15-3.59,2.17-.95,3.47-1.35,4.04-1.23.25.05.33.19.48.48.16.31.36.69.91.93,1.74,3.75,1.7,6.93-.09,9.2-2.05,2.6-5.76,3.34-7.27,3.03-.35-.07-.48-.19-.48-.25,0,0,0-.67,3.27-1.79,1.68-.29,2.3-1.29,2.32-2.12.01-.74-.43-1.37-1.06-1.5h-.11c-4.46.14-6.89.85-7.88,2.3-1.07,1.57-.29,3.73.69,6.47.94,2.62,2.01,5.6,1.81,8.95l-.33.92c-1.13,3.25-2.03,5.81-.86,8.75l.03.08.07.05c.32.2.64.33.95.4.76.16,1.89-.01,2.98-1.72,2.36-3.7,3.17-12.71,1.48-15.61,3.84-1.84,6.77-4.54,8.72-6.33,1.12-1.03,2.17-2,2.53-1.93.78.16-.45,6.22-2.89,18.29l-.12.59c-.94,3.88-2.42,5.33-3.72,6.61-.61.59-1.15,1.15-1.56,1.86l8.17-1.54s-.06-.03-.08-.04c4.65-7.87,4.83-17.75,4.98-26.04.43-1.74,1.12-2.74,1.73-3.63.82-1.19,1.53-2.21,1.32-4.6-.36-4.48-3.85-8.29-8.5-9.26-1.63-.34-3.28-.29-4.78.15-.61-.74-1.12-1.49-1.61-2.22-1.14-1.69-2.21-3.28-4.23-4.16l-.05-.02h-.05c-.27-.01-.47-.03-.62-.06-.19-.04-.22-.08-.22-.08-.01-.04.03-.19.05-.29.07-.27.16-.65.05-1.12v-.05s-.04-.04-.04-.04c-1.95-2.78-3.1-3.42-5.56-3.94-.35-.07-.73-.14-1.14-.22-1.42-3.16-3.42-5.03-5.94-5.56-4.49-.94-9.6,2.69-12.67,6.7-.73.87-1.64,1.86-2.69,3.02-4.8,5.26-11.36,12.46-11.78,19.3.79,8.73,4.57,15.45,9.36,23.97,1.81,3.22,3.86,6.87,5.95,10.98.1.23.18.46.26.69-.07,0-.15.01-.22.01l5.9.47c-.87-4.58-3.51-8.85-7.37-15.06ZM86.89,211.34c.05-.06.24-.1.61-.02.82.17,2.31.84,4.55,2.05,1.67,2.01,1.04,5.32.08,6.93-.45.76-.97,1.16-1.4,1.07-.32-.07-.62-.4-.87-.98.03-2.12-1.1-4.45-2.01-6.33-.55-1.14-1.18-2.44-.96-2.72Z"/>
      </g>
      <g>
        <path class="st8" d="M88.63,164.06c-1.01-.58-1.91-.16-2.6.6-1.53,1.69-2.88,3.51-3.92,5.53-.47.91-.43,1.87.33,2.66.63.66,1.41.79,2.42.52.23-.15.65-.32.89-.62,1.5-1.89,2.88-3.86,3.62-6.17.31-.96.26-1.95-.75-2.52"/>
        <path class="st8" d="M51.11,176.07c-1.83-1.66-3.86-3.11-6.2-3.99-1.6-.6-2.84.57-2.41,2.43.19.27.49.81.9,1.25,1.41,1.52,3.1,2.7,4.86,3.77,1.12.68,2.3.59,3.15-.51.8-1.03.59-2.15-.3-2.96"/>
        <path class="st8" d="M72.04,159.44c-1.1-.06-1.59.71-1.86,1.6-.68,2.24-.66,4.56-.7,6.71.27,1.34.86,2.22,2.16,2.27,1.3.05,2.11-.75,2.3-1.93.38-2.37.18-4.74-.25-7.08-.15-.84-.69-1.52-1.66-1.56"/>
        <path class="st8" d="M59.29,163.73c-.53-.94-1.3-1.95-2.62-1.44-1.42.56-1.18,1.82-.9,3.34.47,1.32,1.01,3.01,1.67,4.64.56,1.37,1.55,2.4,3.18,1.79,1.66-.62,1.69-2.05,1.1-3.42-.72-1.68-1.54-3.33-2.44-4.92"/>
      </g>
    </g>
  </g>
</svg>